# 3ds Max Wavefront OBJ Exporter v0.97b - (c)2007 guruware
# File Created: 26.12.2012 09:02:19

mtllib barrel.mtl

#
# object Cylinder001
#

v  0.2500 1.5000 0.4330
v  0.5000 1.5000 0.0000
v  0.2500 1.5000 -0.4330
v  -0.5000 1.5000 0.0000
v  -0.2500 1.5000 -0.4330
v  -0.2500 1.5000 0.4330
v  -0.3274 0.5000 -0.5671
v  -0.6548 0.5000 0.0000
v  -0.6548 1.0000 0.0000
v  -0.3274 1.0000 -0.5671
v  0.3274 0.5000 -0.5671
v  0.3274 1.0000 -0.5671
v  0.6548 0.5000 0.0000
v  0.6548 1.0000 0.0000
v  0.3274 0.5000 0.5671
v  0.3274 1.0000 0.5671
v  -0.3274 0.5000 0.5671
v  -0.3274 1.0000 0.5671
v  -0.5000 -0.0000 0.0000
v  -0.2500 -0.0000 -0.4330
v  0.2500 -0.0000 -0.4330
v  0.2500 -0.0000 0.4330
v  0.5000 -0.0000 0.0000
v  -0.2500 -0.0000 0.4330
# 24 vertices

vn 0.0000 1.0000 -0.0000
vn -0.4949 -0.1430 -0.8571
vn -0.9897 -0.1430 -0.0000
vn -0.9897 0.1430 0.0000
vn -0.4949 0.1430 -0.8571
vn 0.4949 -0.1430 -0.8571
vn 0.4949 0.1430 -0.8571
vn 0.9897 -0.1430 0.0000
vn 0.9897 0.1430 0.0000
vn 0.4949 -0.1430 0.8571
vn 0.4949 0.1430 0.8571
vn -0.4949 -0.1430 0.8571
vn -0.4949 0.1430 0.8571
vn -0.0000 -1.0000 -0.0000
vn -0.0000 -1.0000 0.0000
vn 0.0000 -1.0000 -0.0000
vn -0.4776 -0.2958 -0.8273
vn -0.9553 -0.2958 0.0000
vn -0.9553 0.2958 -0.0000
vn -0.4776 0.2958 -0.8273
vn 0.4776 -0.2958 -0.8273
vn 0.4776 0.2958 -0.8273
vn 0.9553 -0.2958 0.0000
vn 0.9553 0.2958 0.0000
vn 0.4776 -0.2958 0.8273
vn 0.4776 0.2958 0.8273
vn -0.4776 -0.2958 0.8273
vn -0.4776 0.2958 0.8273
# 28 vertex normals

vt 0.0936 0.2536 -1.0398
vt 0.2500 0.2536 -1.1535
vt 0.6564 0.2536 -0.1138
vt 0.7500 0.2536 1.1535
vt 0.9064 0.2536 1.0398
vt 0.3436 0.2536 0.1138
vt 0.9064 0.9196 1.0398
vt 0.7500 0.9196 1.1535
vt 0.7500 0.5866 1.1535
vt 0.9064 0.5866 1.0398
vt 0.0936 0.9196 1.0398
vt -0.0936 0.9196 1.0398
vt -0.0936 0.5866 1.0398
vt 0.0936 0.5866 1.0398
vt 0.2500 0.9196 1.1535
vt 0.2500 0.5866 1.1535
vt 0.4064 0.9196 1.0398
vt 0.4064 0.5866 1.0398
vt 0.5936 0.9196 1.0398
vt 0.5936 0.5866 1.0398
vt 0.7500 1.2526 1.1535
vt 0.9064 1.2526 1.0398
vt 0.6564 1.2526 -0.1138
vt 0.0936 1.2526 -1.0398
vt 0.2500 1.2526 -1.1535
vt 0.5936 1.2526 1.0398
vt 0.0936 1.2526 1.0398
vt -0.0936 1.2526 1.0398
vt -0.0936 0.2536 1.0398
vt 0.0936 0.2536 1.0398
vt 0.2500 1.2526 1.1535
vt 0.2500 0.2536 1.1535
vt 0.4064 1.2526 1.0398
vt 0.4064 0.2536 1.0398
vt 0.5936 0.2536 1.0398
# 35 texture coords

g Cylinder001
usemtl Material__26
s 1
f 1/1/1 2/2/1 3/3/1 4/4/1 
f 3/3/1 5/5/1 4/4/1 
f 6/6/1 1/1/1 4/4/1 
s 8
f 7/7/2 8/8/3 9/9/4 10/10/5 
f 11/11/6 7/12/2 10/13/5 12/14/7 
f 13/15/8 11/11/6 12/14/7 14/16/9 
f 15/17/10 13/15/8 14/16/9 16/18/11 
f 17/19/12 15/17/10 16/18/11 18/20/13 
f 8/8/3 17/19/12 18/20/13 9/9/4 
s 1
f 19/21/14 20/22/15 21/23/15 22/24/14 
f 21/23/15 23/25/14 22/24/14 
f 24/26/16 19/21/14 22/24/14 
s 8
f 20/22/17 19/21/18 8/8/3 7/7/2 
f 4/4/19 5/5/20 10/10/5 9/9/4 
f 21/27/21 20/28/17 7/12/2 11/11/6 
f 5/29/20 3/30/22 12/14/7 10/13/5 
f 23/31/23 21/27/21 11/11/6 13/15/8 
f 3/30/22 2/32/24 14/16/9 12/14/7 
f 22/33/25 23/31/23 13/15/8 15/17/10 
f 2/32/24 1/34/26 16/18/11 14/16/9 
f 24/26/27 22/33/25 15/17/10 17/19/12 
f 1/34/26 6/35/28 18/20/13 16/18/11 
f 19/21/18 24/26/27 17/19/12 8/8/3 
f 6/35/28 4/4/19 9/9/4 18/20/13 
# 20 polygons - 4 triangles

