# 3ds Max Wavefront OBJ Exporter v0.97b - (c)2007 guruware
# File Created: 01.11.2012 14:43:09

mtllib blacksmith.mtl

#
# object muren
#

v  -3.5664 4.9443 6.7526
v  -3.6200 0.0074 6.7092
v  0.3962 0.0074 6.8059
v  0.3962 2.9518 6.8059
v  3.7584 0.0074 6.7092
v  3.7584 0.0074 -6.5935
v  3.8550 1.2656 -4.3298
v  3.8550 1.2656 -1.9211
v  -3.7167 1.2656 1.1058
v  -3.7167 3.2041 1.1058
v  -3.5664 4.9443 -6.6369
v  -3.6200 0.0074 -6.5935
v  -3.7167 3.2041 3.5145
v  -3.7167 1.2656 3.5145
v  3.8550 3.2041 -4.3298
v  3.7047 4.9443 -6.6369
v  3.7047 4.9443 6.7526
v  3.8550 3.2041 -1.9211
v  2.2326 2.9518 6.8059
v  2.2326 0.0074 6.8059
v  -2.5748 5.8661 6.8059
v  2.7131 5.8661 6.8059
v  -2.5748 5.8661 -6.6902
v  2.7131 5.8661 -6.6902
v  0.3962 0.0074 6.4759
v  -3.3867 0.0074 6.4759
v  -3.3867 4.9443 6.4759
v  0.3962 2.9518 6.4759
v  3.5250 1.2656 -4.3298
v  3.5250 0.0074 -6.3602
v  3.5250 0.0074 6.4759
v  3.5250 1.2656 -1.9211
v  -3.3867 4.9443 -6.3602
v  -3.3867 3.2041 1.1058
v  -3.3867 1.2656 1.1058
v  -3.3867 0.0074 -6.3602
v  -3.3867 3.2041 3.5145
v  -3.3867 1.2656 3.5145
v  3.5250 4.9443 6.4759
v  3.5250 4.9443 -6.3602
v  3.5250 3.2041 -4.3298
v  3.5250 3.2041 -1.9211
v  2.2326 0.0074 6.4759
v  2.2326 2.9518 6.4759
v  -2.5748 5.8661 6.4759
v  2.7131 5.8661 6.4759
v  2.7131 5.8661 -6.3602
v  -2.5748 5.8661 -6.3602
# 48 vertices

vn -0.0239 -0.0171 0.9996
vn -0.0241 -0.0085 0.9997
vn -0.0195 -0.0049 0.9998
vn -0.0038 0.0052 1.0000
vn 0.9999 0.0027 0.0116
vn 0.9992 -0.0206 -0.0347
vn 0.9989 -0.0429 -0.0188
vn 0.9989 -0.0475 0.0058
vn -0.9989 -0.0471 -0.0065
vn -0.9985 0.0534 -0.0074
vn -0.9997 0.0199 -0.0130
vn -0.9999 0.0018 -0.0128
vn -0.9986 0.0484 0.0203
vn -0.9991 0.0321 0.0263
vn -0.9990 -0.0423 0.0161
vn -0.9996 -0.0102 0.0262
vn 0.9985 0.0491 -0.0251
vn 0.9986 0.0418 -0.0336
vn 0.9998 0.0189 0.0117
vn 0.9985 0.0538 0.0065
vn 0.0268 0.0090 0.9996
vn 0.0632 0.0000 0.9980
vn 0.0585 -0.0025 0.9983
vn 0.0161 -0.0097 0.9998
vn -0.0160 -0.0198 0.9997
vn 0.0000 -0.0576 0.9983
vn -0.0019 -0.0242 -0.9997
vn 0.0000 -0.0576 -0.9983
vn 0.0084 -0.0175 -0.9998
vn 0.0019 -0.0132 -0.9999
vn 0.0459 -0.0083 -0.9989
vn 0.0000 -0.0088 -1.0000
vn 0.0000 0.0000 -1.0000
vn -1.0000 0.0000 -0.0000
vn 1.0000 0.0000 -0.0000
vn 0.0000 0.0000 1.0000
vn 0.0000 -1.0000 -0.0000
vn 0.0000 1.0000 -0.0000
vn 0.7375 0.6723 -0.0633
vn 0.6130 0.6825 -0.3980
vn 0.6380 0.6867 -0.3484
vn 0.7504 0.6610 -0.0000
vn -0.3611 0.9325 -0.0000
vn -0.3714 0.9278 -0.0337
vn -0.6874 0.6322 -0.3574
vn -0.6746 0.5942 -0.4380
vn -0.7375 0.6723 0.0633
vn -0.6130 0.6825 0.3980
vn -0.6380 0.6867 0.3484
vn -0.7504 0.6610 -0.0000
vn 0.3611 0.9325 -0.0000
vn 0.3714 0.9278 0.0337
vn 0.6874 0.6322 0.3574
vn 0.6746 0.5942 0.4380
# 54 vertex normals

vt 0.8139 2.6293 -9.8188
vt 0.7870 0.1609 -9.7971
vt 2.7952 0.1609 -9.8454
vt 2.7952 1.6331 -9.8454
vt -9.7971 0.1609 4.4762
vt -3.1457 0.1609 4.4762
vt -4.2776 0.7900 4.5246
vt -5.4820 0.7900 4.5246
vt 7.9954 0.7900 0.7387
vt 7.9954 1.7592 0.7387
vt 4.1240 2.6293 0.8139
vt 4.1457 0.1609 0.7870
vt 9.1997 1.7592 0.7387
vt 10.8188 2.6293 0.8139
vt 9.1997 0.7900 0.7387
vt 10.7971 0.1609 0.7870
vt -4.2776 1.7592 4.5246
vt -3.1240 2.6293 4.4494
vt -9.8188 2.6293 4.4494
vt -5.4820 1.7592 4.5246
vt 3.7133 1.6331 -9.8454
vt 3.7133 0.1609 -9.8454
vt 4.4762 0.1609 -9.7971
vt 4.4494 2.6293 -9.8188
vt 1.3097 3.0902 -9.8454
vt 3.9536 3.0902 -9.8454
vt 0.1861 2.6293 -3.1240
vt -0.3097 3.0902 -3.0974
vt -2.9536 3.0902 -3.0974
vt -3.4762 0.1609 -3.1457
vt -3.4494 2.6293 -3.1240
vt 0.2130 0.1609 -3.1457
vt -1.7952 0.1609 -9.6804
vt 0.0963 0.1609 -9.6804
vt 0.0963 2.6293 -9.6804
vt -1.7952 1.6331 -9.6804
vt 5.2776 0.7900 4.3596
vt 4.2624 0.1609 4.3596
vt 10.6804 0.1609 4.3596
vt 6.4820 0.7900 4.3596
vt -3.2624 2.6293 0.9037
vt -6.9954 1.7592 0.9037
vt -6.9954 0.7900 0.9037
vt -3.2624 0.1609 0.9037
vt -9.6804 2.6293 0.9037
vt -8.1997 1.7592 0.9037
vt -9.6804 0.1609 0.9037
vt -8.1997 0.7900 0.9037
vt 10.6804 2.6293 4.3596
vt 4.2624 2.6293 4.3596
vt 5.2776 1.7592 4.3596
vt 6.4820 1.7592 4.3596
vt -3.3596 0.1609 -9.6804
vt -2.7133 0.1609 -9.6804
vt -2.7133 1.6331 -9.6804
vt -3.3596 2.6293 -9.6804
vt -0.3097 3.0902 -9.6804
vt -2.9536 3.0902 -9.6804
vt 3.9536 3.0902 -3.2624
vt 1.3097 3.0902 -3.2624
vt 0.9037 2.6293 -3.2624
vt 4.3596 0.1609 -3.2624
vt 4.3596 2.6293 -3.2624
vt 0.9037 0.1609 -3.2624
vt -1.7952 -9.8454 0.1609
vt 0.2130 -9.7971 0.1609
vt 0.0963 -9.6804 0.1609
vt -1.7952 -9.6804 0.1609
vt -9.8454 1.6331 2.7952
vt -9.8454 0.1609 2.7952
vt -9.6804 0.1609 2.7952
vt -9.6804 1.6331 2.7952
vt -3.4762 -3.1457 0.1609
vt -3.4762 -9.7971 0.1609
vt -3.3596 -9.6804 0.1609
vt -3.3596 -3.2624 0.1609
vt 4.5246 -5.4820 0.7900
vt 4.5246 -4.2776 0.7900
vt 4.3596 -4.2776 0.7900
vt 4.3596 -5.4820 0.7900
vt 0.7387 1.7592 -6.9954
vt 0.7387 0.7900 -6.9954
vt 0.9037 0.7900 -6.9954
vt 0.9037 1.7592 -6.9954
vt 0.2613 -8.1997 1.7592
vt 0.2613 -6.9954 1.7592
vt 0.0963 -6.9954 1.7592
vt 0.0963 -8.1997 1.7592
vt 0.8139 -3.1240 2.6293
vt 0.8139 -9.8188 2.6293
vt 0.9037 -9.6804 2.6293
vt 0.9037 -3.2624 2.6293
vt 0.2613 0.7900 -8.1997
vt 0.2613 1.7592 -8.1997
vt 0.0963 1.7592 -8.1997
vt 0.0963 0.7900 -8.1997
vt 0.2130 -3.1457 0.1609
vt 0.0963 -3.2624 0.1609
vt 0.7387 -6.9954 0.7900
vt 0.7387 -8.1997 0.7900
vt 0.9037 -8.1997 0.7900
vt 0.9037 -6.9954 0.7900
vt 4.4494 -9.8188 2.6293
vt 4.4494 -3.1240 2.6293
vt 4.3596 -3.2624 2.6293
vt 4.3596 -9.6804 2.6293
vt -3.5246 -4.2776 1.7592
vt -3.5246 -5.4820 1.7592
vt -3.3596 -5.4820 1.7592
vt -3.3596 -4.2776 1.7592
vt -3.5246 1.7592 -5.4820
vt -3.5246 0.7900 -5.4820
vt -3.3596 0.7900 -5.4820
vt -3.3596 1.7592 -5.4820
vt 4.5246 0.7900 -4.2776
vt 4.5246 1.7592 -4.2776
vt 4.3596 1.7592 -4.2776
vt 4.3596 0.7900 -4.2776
vt 10.8454 0.1609 3.7133
vt 10.8454 1.6331 3.7133
vt 10.6804 1.6331 3.7133
vt 10.6804 0.1609 3.7133
vt -2.7133 -9.8454 0.1609
vt -2.7133 -9.6804 0.1609
vt -2.7133 -9.8454 1.6331
vt -1.7952 -9.8454 1.6331
vt -1.7952 -9.6804 1.6331
vt -2.7133 -9.6804 1.6331
vt 3.9536 -9.8454 3.0902
vt 3.9134 -9.7066 3.0454
vt 1.3097 -9.8454 3.0902
vt 3.9536 -9.6804 3.0902
vt 1.3097 -9.6804 3.0902
vt 0.8621 -9.6804 2.6741
vt 1.3097 -3.0974 3.0902
vt 1.3499 -3.2363 3.0454
vt 3.9536 -3.0974 3.0902
vt 1.3097 -3.2624 3.0902
vt 3.9536 -3.2624 3.0902
vt 4.4012 -3.2624 2.6741
# 140 texture coords

g muren
usemtl Material__23
s 8
f 1/1/1 2/2/2 3/3/3 4/4/4 
s 16
f 5/5/5 6/6/6 7/7/7 8/8/8 
s 64
f 9/9/9 10/10/10 11/11/11 12/12/12 
f 10/10/10 13/13/13 1/14/14 11/11/11 
f 14/15/15 2/16/16 1/14/14 13/13/13 
f 9/9/9 12/12/12 2/16/16 14/15/15 
s 16
f 15/17/17 16/18/18 17/19/19 18/20/20 
f 8/8/8 18/20/20 17/19/19 5/5/5 
f 6/6/6 16/18/18 15/17/17 7/7/7 
s 8
f 19/21/21 20/22/22 5/23/23 17/24/24 
f 4/4/4 19/21/21 17/24/24 21/25/25 
f 17/24/24 22/26/26 21/25/25 
f 1/1/1 4/4/4 21/25/25 
s 32
f 11/27/27 23/28/28 24/29/29 6/30/30 
f 24/29/29 16/31/31 6/30/30 
f 12/32/32 11/27/27 6/30/30 
s 8
f 25/33/33 26/34/33 27/35/33 28/36/33 
s 16
f 29/37/34 30/38/34 31/39/34 32/40/34 
s 64
f 33/41/35 34/42/35 35/43/35 36/44/35 
f 27/45/35 37/46/35 34/42/35 33/41/35 
f 27/45/35 26/47/35 38/48/35 37/46/35 
f 26/47/35 36/44/35 35/43/35 38/48/35 
s 16
f 39/49/34 40/50/34 41/51/34 42/52/34 
f 39/49/34 42/52/34 32/40/34 31/39/34 
f 41/51/34 40/50/34 30/38/34 29/37/34 
s 8
f 31/53/33 43/54/33 44/55/33 39/56/33 
f 39/56/33 44/55/33 28/36/33 45/57/33 
f 45/57/33 46/58/33 39/56/33 
f 45/57/33 28/36/33 27/35/33 
s 32
f 47/59/36 48/60/36 33/61/36 30/62/36 
f 30/62/36 40/63/36 47/59/36 
f 30/62/36 33/61/36 36/64/36 
s 1
f 3/65/37 2/66/37 26/67/37 25/68/37 
s 2
f 4/69/35 3/70/35 25/71/35 28/72/35 
s 1
f 6/73/37 5/74/37 31/75/37 30/76/37 
f 8/77/38 7/78/38 29/79/38 32/80/38 
f 10/81/36 9/82/36 35/83/36 34/84/36 
s 2
f 13/85/37 10/86/37 34/87/37 37/88/37 
s 1
f 11/89/38 1/90/38 27/91/38 33/92/38 
f 14/93/33 13/94/33 37/95/33 38/96/33 
f 2/66/37 12/97/37 36/98/37 26/67/37 
s 2
f 9/99/38 14/100/38 38/101/38 35/102/38 
s 1
f 17/103/38 16/104/38 40/105/38 39/106/38 
f 15/107/37 18/108/37 42/109/37 41/110/37 
s 2
f 18/111/33 8/112/33 32/113/33 42/114/33 
f 7/115/36 15/116/36 41/117/36 29/118/36 
f 20/119/34 19/120/34 44/121/34 43/122/34 
s 1
f 5/74/37 20/123/37 43/124/37 31/75/37 
f 19/125/37 4/126/37 28/127/37 44/128/37 
s 2
f 22/129/39 17/103/40 39/106/41 46/130/42 
s 4
f 21/131/43 22/129/38 46/132/38 45/133/44 
f 1/90/45 21/131/43 45/133/44 27/134/46 
s 2
f 23/135/47 11/89/48 33/92/49 48/136/50 
s 4
f 24/137/51 23/135/38 48/138/38 47/139/52 
f 16/104/53 24/137/51 47/139/52 40/140/54 
s 1
f 12/97/37 6/73/37 30/76/37 36/98/37 
# 48 polygons - 8 triangles

#
# object dak
#

v  -2.7201 6.2054 -7.0446
v  -3.7213 5.1171 -7.0446
v  -3.7213 5.1171 6.9035
v  -2.7201 6.2054 6.9035
v  3.8653 5.1171 -7.0446
v  2.8642 6.2054 -7.0446
v  2.8642 6.2054 6.9035
v  3.8653 5.1171 6.9035
v  -3.4511 4.8791 6.9035
v  -3.4511 4.8791 -7.0446
v  -2.5719 5.8773 -7.0446
v  -2.5719 5.8773 6.9035
v  2.7160 5.8773 6.9035
v  2.7160 5.8773 -7.0446
v  3.5952 4.8791 -7.0446
v  3.5952 4.8791 6.9035
# 16 vertices

vn -0.4019 0.9157 -0.0000
vn -0.7360 0.6770 -0.0000
vn 0.7360 0.6770 -0.0000
vn 0.4019 0.9157 -0.0000
vn 0.7504 -0.6610 -0.0000
vn 0.4117 -0.9113 -0.0000
vn -0.4117 -0.9113 -0.0000
vn -0.7504 -0.6610 -0.0000
vn 0.0000 0.0000 -1.0000
vn -0.6610 -0.7504 -0.0000
vn 0.0000 0.0000 1.0000
vn 0.6610 -0.7504 -0.0000
# 12 vertex normals

vt 3.8418 4.6067 1.2370
vt 3.8418 4.0626 0.7364
vt 10.3848 4.0626 0.7364
vt 10.3848 4.6067 1.2370
vt -2.8418 4.0626 4.5297
vt -2.8418 4.6067 4.0291
vt -9.3848 4.6067 4.0291
vt -9.3848 4.0626 4.5297
vt 4.0291 -2.8418 4.6067
vt 1.2370 -2.8418 4.6067
vt 1.2370 -9.3848 4.6067
vt 4.0291 -9.3848 4.6067
vt -9.3848 3.9436 0.8715
vt -2.8418 3.9436 0.8715
vt -2.8418 4.4427 1.3111
vt -9.3848 4.4427 1.3111
vt 10.3848 4.4427 3.9550
vt 3.8418 4.4427 3.9550
vt 3.8418 3.9436 4.3946
vt 10.3848 3.9436 4.3946
vt -0.3111 -9.3848 4.4427
vt -0.3111 -2.8418 4.4427
vt -2.9550 -2.8418 4.4427
vt -2.9550 -9.3848 4.4427
vt 0.2636 4.0626 -2.8418
vt -0.2370 4.6067 -2.8418
vt -0.3111 4.4427 -2.8418
vt 0.1285 3.9436 -2.8418
vt 0.2636 -9.3848 4.0626
vt 0.2636 -2.8418 4.0626
vt 0.1285 -2.8418 3.9436
vt 0.1285 -9.3848 3.9436
vt 1.2370 4.6067 -9.3848
vt 0.7364 4.0626 -9.3848
vt 0.8715 3.9436 -9.3848
vt 1.3111 4.4427 -9.3848
vt -3.0291 4.6067 -2.8418
vt -3.5297 4.0626 -2.8418
vt -3.3946 3.9436 -2.8418
vt -2.9550 4.4427 -2.8418
vt 4.5297 4.0626 -9.3848
vt 4.0291 4.6067 -9.3848
vt 3.9550 4.4427 -9.3848
vt 4.3946 3.9436 -9.3848
vt -3.5297 -2.8418 4.0626
vt -3.5297 -9.3848 4.0626
vt -3.3946 -9.3848 3.9436
vt -3.3946 -2.8418 3.9436
# 48 texture coords

g dak
usemtl Material__20
s 4
f 49/141/55 50/142/56 51/143/56 52/144/55 
f 53/145/57 54/146/58 55/147/58 56/148/57 
f 54/149/58 49/150/55 52/151/55 55/152/58 
f 57/153/59 58/154/59 59/155/60 60/156/60 
f 61/157/61 62/158/61 63/159/62 64/160/62 
f 60/161/60 59/162/60 62/163/61 61/164/61 
s 1
f 50/165/63 49/166/63 59/167/63 58/168/63 
s 2
f 51/169/64 50/170/64 58/171/64 57/172/64 
s 1
f 52/173/65 51/174/65 57/175/65 60/176/65 
f 54/177/63 53/178/63 63/179/63 62/180/63 
f 56/181/65 55/182/65 61/183/65 64/184/65 
s 2
f 53/185/66 56/186/66 64/187/66 63/188/66 
s 1
f 49/166/63 54/177/63 62/180/63 59/167/63 
f 55/182/65 52/173/65 60/176/65 61/183/65 
# 14 polygons

#
# object vloeronder
#

v  -3.5232 -0.1256 6.5430
v  -3.5232 -0.1256 -6.5430
v  3.5232 -0.1256 -6.5430
v  3.5232 -0.1256 6.5430
v  3.5232 0.2044 -6.5430
v  -3.5232 0.2044 -6.5430
v  -3.5232 0.2044 6.5430
v  3.5232 0.2044 6.5430
# 8 vertices

vn 0.0000 -1.0000 -0.0000
vn 0.0000 1.0000 -0.0000
vn -1.0000 0.0000 -0.0000
vn 0.0000 0.0000 -1.0000
vn 1.0000 0.0000 -0.0000
vn 0.0000 0.0000 1.0000
# 6 vertex normals

vt 2.0528 -3.8477 0.4175
vt 2.0528 2.6953 0.4175
vt -1.4704 2.6953 0.4175
vt -1.4704 -3.8477 0.4175
vt 2.4704 2.6953 0.5825
vt -1.0528 2.6953 0.5825
vt -1.0528 -3.8477 0.5825
vt 2.4704 -3.8477 0.5825
vt -1.6953 0.4175 -1.0528
vt 4.8477 0.4175 -1.0528
vt 4.8477 0.5825 -1.0528
vt -1.6953 0.5825 -1.0528
vt -1.4704 0.4175 2.6953
vt 2.0528 0.4175 2.6953
vt 2.0528 0.5825 2.6953
vt -1.4704 0.5825 2.6953
vt -3.8477 0.4175 2.4704
vt 2.6953 0.4175 2.4704
vt 2.6953 0.5825 2.4704
vt -3.8477 0.5825 2.4704
vt -1.0528 0.4175 -3.8477
vt 2.4704 0.4175 -3.8477
vt 2.4704 0.5825 -3.8477
vt -1.0528 0.5825 -3.8477
# 24 texture coords

g vloeronder
usemtl Material__6
s 2
f 65/189/67 66/190/67 67/191/67 68/192/67 
f 69/193/68 70/194/68 71/195/68 72/196/68 
s 1
f 66/197/69 65/198/69 71/199/69 70/200/69 
s 4
f 67/201/70 66/202/70 70/203/70 69/204/70 
s 1
f 68/205/71 67/206/71 69/207/71 72/208/71 
s 4
f 65/209/72 68/210/72 72/211/72 71/212/72 
# 6 polygons

#
# object Object001
#

v  -0.5738 5.7684 -1.0438
v  -0.5738 5.7684 -2.3999
v  0.9672 5.7684 -2.3999
v  0.9672 5.7684 -1.0438
v  0.9672 7.2616 -1.0438
v  -0.5738 7.2616 -1.0438
v  0.9672 7.2616 -2.3999
v  -0.5738 7.2616 -2.3999
# 8 vertices

vn 0.0000 -1.0000 -0.0000
vn 0.0000 0.0000 1.0000
vn 1.0000 0.0000 -0.0000
vn 0.0000 0.0000 -1.0000
vn -1.0000 0.0000 -0.0000
# 5 vertex normals

vt -1.2118 -6.4798 -1.8815
vt -1.2118 -5.8018 -1.8815
vt -1.9823 -5.8018 -1.8815
vt -1.9823 -6.4798 -1.8815
vt 2.2118 -1.8815 -6.4798
vt 2.9823 -1.8815 -6.4798
vt 2.9823 -1.1349 -6.4798
vt 2.2118 -1.1349 -6.4798
vt -6.4798 -1.8815 2.9823
vt -5.8018 -1.8815 2.9823
vt -5.8018 -1.1349 2.9823
vt -6.4798 -1.1349 2.9823
vt -1.9823 -1.8815 -5.8018
vt -1.2118 -1.8815 -5.8018
vt -1.2118 -1.1349 -5.8018
vt -1.9823 -1.1349 -5.8018
vt 6.8018 -1.8815 2.2118
vt 7.4798 -1.8815 2.2118
vt 7.4798 -1.1349 2.2118
vt 6.8018 -1.1349 2.2118
# 20 texture coords

g Object001
usemtl Material__24
s 2
f 73/213/73 74/214/73 75/215/73 76/216/73 
s 8
f 73/217/74 76/218/74 77/219/74 78/220/74 
s 16
f 76/221/75 75/222/75 79/223/75 77/224/75 
s 32
f 75/225/76 74/226/76 80/227/76 79/228/76 
s 64
f 74/229/77 73/230/77 78/231/77 80/232/77 
# 5 polygons

#
# object Object002
#

v  -0.7095 8.0255 -0.8307
v  1.1029 8.0255 -0.8307
v  1.1029 8.0255 -2.6130
v  -0.7095 8.0255 -2.6130
v  -0.7095 7.2616 -0.8307
v  1.1029 7.2616 -0.8307
v  1.1029 7.2616 -2.6130
v  -0.7095 7.2616 -2.6130
# 8 vertices

vn 0.0000 1.0000 -0.0000
vn 0.0000 0.0000 1.0000
vn 1.0000 0.0000 -0.0000
vn 0.0000 -0.0000 -1.0000
vn -1.0000 0.0000 -0.0000
vn 0.0000 -1.0000 -0.0000
# 6 vertex normals

vt 2.1440 -6.5864 -0.7529
vt 3.0502 -6.5864 -0.7529
vt 3.0502 -5.6953 -0.7529
vt 2.1440 -5.6953 -0.7529
vt 2.1440 -1.1349 -6.5864
vt 3.0502 -1.1349 -6.5864
vt 3.0502 -0.7529 -6.5864
vt 2.1440 -0.7529 -6.5864
vt -6.5864 -1.1349 3.0502
vt -5.6953 -1.1349 3.0502
vt -5.6953 -0.7529 3.0502
vt -6.5864 -0.7529 3.0502
vt -2.0502 -1.1349 -5.6953
vt -1.1440 -1.1349 -5.6953
vt -1.1440 -0.7529 -5.6953
vt -2.0502 -0.7529 -5.6953
vt 6.6953 -1.1349 2.1440
vt 7.5864 -1.1349 2.1440
vt 7.5864 -0.7529 2.1440
vt 6.6953 -0.7529 2.1440
vt -1.1440 -5.6953 -1.1349
vt -2.0502 -5.6953 -1.1349
vt -2.0502 -6.5864 -1.1349
vt -1.1440 -6.5864 -1.1349
# 24 texture coords

g Object002
usemtl Material__21
s 4
f 81/233/78 82/234/78 83/235/78 84/236/78 
s off
f 85/237/79 86/238/79 82/239/79 81/240/79 
f 86/241/80 87/242/80 83/243/80 82/244/80 
f 87/245/81 88/246/81 84/247/81 83/248/81 
f 88/249/82 85/250/82 81/251/82 84/252/82 
f 88/253/83 87/254/83 86/255/83 85/256/83 
# 6 polygons

