# 3ds Max Wavefront OBJ Exporter v0.97b - (c)2007 guruware
# File Created: 20.01.2013 12:13:51

mtllib block_4_4_2.mtl

#
# object Box001
#

v  -2.0000 0.0000 2.0000
v  -2.0000 0.0000 -2.0000
v  2.0000 0.0000 -2.0000
v  2.0000 0.0000 2.0000
v  -2.0000 2.0000 2.0000
v  2.0000 2.0000 2.0000
v  2.0000 2.0000 -2.0000
v  -2.0000 2.0000 -2.0000
# 8 vertices

vn 0.0000 -1.0000 -0.0000
vn 0.0000 1.0000 -0.0000
vn 0.0000 0.0000 1.0000
vn 1.0000 0.0000 -0.0000
vn 0.0000 0.0000 -1.0000
vn -1.0000 0.0000 -0.0000
# 6 vertex normals

vt 1.5000 -0.5000 0.0000
vt 1.5000 1.5000 0.0000
vt -0.5000 1.5000 0.0000
vt -0.5000 -0.5000 0.0000
vt -0.5000 -0.5000 1.0000
vt 1.5000 -0.5000 1.0000
vt 1.5000 1.5000 1.0000
vt -0.5000 1.5000 1.0000
vt -0.5000 0.0000 -0.5000
vt 1.5000 0.0000 -0.5000
vt 1.5000 1.0000 -0.5000
vt -0.5000 1.0000 -0.5000
vt -0.5000 0.0000 1.5000
vt 1.5000 0.0000 1.5000
vt 1.5000 1.0000 1.5000
vt -0.5000 1.0000 1.5000
# 16 texture coords

g Box001
usemtl wire_148177027
s 2
f 1/1/1 2/2/1 3/3/1 4/4/1 
s 4
f 5/5/2 6/6/2 7/7/2 8/8/2 
s 8
f 1/9/3 4/10/3 6/11/3 5/12/3 
s 16
f 4/13/4 3/14/4 7/15/4 6/16/4 
s 32
f 3/13/5 2/14/5 8/15/5 7/16/5 
s 64
f 2/9/6 1/10/6 5/11/6 8/12/6 
# 6 polygons

