# 3ds Max Wavefront OBJ Exporter v0.97b - (c)2007 guruware
# File Created: 27.08.2012 11:28:32

mtllib 1.mtl

#
# object Box001
#

v  3.8273 2.8818 -2.2964
v  -3.8273 2.8818 -2.2964
v  -3.8273 2.8818 2.2964
v  3.8273 2.8818 2.2964
v  11.4819 0.0000 2.2964
v  3.8273 0.0000 2.2964
v  3.8273 0.0000 -2.2964
v  11.4819 0.0000 -2.2964
v  -11.4819 0.0000 -2.2964
v  -3.8273 0.0000 -2.2964
v  -3.8273 0.0000 2.2964
v  -11.4819 0.0000 2.2964
v  3.8273 2.2964 2.2964
v  -3.8273 2.2964 2.2964
v  -3.8273 2.2964 -2.2964
v  3.8273 2.2964 -2.2964
# 16 vertices

vn 0.1791 0.9838 -0.0000
vn -0.1791 0.9838 -0.0000
vn 0.0000 -1.0000 -0.0000
vn 0.3523 0.9359 -0.0000
vn -0.3523 0.9359 -0.0000
vn 0.0000 0.0000 1.0000
vn 0.0000 0.0000 -1.0000
vn -1.0000 0.0000 -0.0000
vn 1.0000 0.0000 -0.0000
# 9 vertex normals

vt 2.4137 1.6482 1.2204
vt -1.4136 1.6482 1.2204
vt -1.4137 -0.6482 1.2204
vt 2.4136 -0.6482 1.2204
vt -5.2409 -0.6482 -0.2204
vt -1.4136 -0.6482 -0.2204
vt -1.4137 1.6482 -0.2204
vt -5.2410 1.6482 -0.2204
vt 6.2409 1.6482 -0.2204
vt 2.4136 1.6482 -0.2204
vt 2.4137 -0.6482 -0.2204
vt 6.2410 -0.6482 -0.2204
vt 6.2410 1.6482 -0.2204
vt 6.2409 -0.6482 -0.2204
vt -5.2410 -0.6482 -0.2204
vt -5.2409 1.6482 -0.2204
vt 2.4136 -0.2204 -0.6482
vt 6.2409 -0.2204 -0.6482
vt 2.4136 0.9278 -0.6482
vt -1.4137 1.2204 -0.6482
vt -5.2410 -0.2204 -0.6482
vt -1.4137 0.9278 -0.6482
vt 2.4136 -0.2204 1.6482
vt 6.2409 -0.2204 1.6482
vt 2.4136 0.9278 1.6482
vt -1.4137 1.2204 1.6482
vt -5.2410 -0.2204 1.6482
vt -1.4137 0.9278 1.6482
vt 2.4136 1.2204 -0.6482
vt 2.4136 1.2204 1.6482
vt -1.4137 -0.2204 -0.6482
vt -1.4137 -0.2204 1.6482
vt 1.6482 -0.2204 2.4136
vt 1.6482 0.9278 2.4136
vt -0.6482 0.9278 2.4137
vt -0.6482 -0.2204 2.4137
vt 1.6482 -0.2204 -1.4136
vt 1.6482 0.9278 -1.4136
vt -0.6482 0.9278 -1.4137
vt -0.6482 -0.2204 -1.4137
vt -1.4136 -0.6482 0.9278
vt 2.4137 -0.6482 0.9278
vt 2.4136 1.6482 0.9278
vt -1.4137 1.6482 0.9278
# 44 texture coords

g Box001
usemtl _1wire_196088225
s 4
f 1/1/1 2/2/2 3/3/2 4/4/1 
s 2
f 5/5/3 6/6/3 7/7/3 8/8/3 
f 9/9/3 10/10/3 11/11/3 12/12/3 
s 4
f 8/13/4 1/1/1 4/4/1 5/14/4 
f 12/15/5 3/3/2 2/2/2 9/16/5 
s 8
f 6/17/6 5/18/6 13/19/6 
f 3/20/6 12/21/6 14/22/6 
s 32
f 10/23/7 9/24/7 15/25/7 
f 1/26/7 8/27/7 16/28/7 
s 8
f 3/20/6 14/22/6 13/19/6 4/29/6 
s 32
f 1/26/7 16/28/7 15/25/7 2/30/7 
s 8
f 5/18/6 4/29/6 13/19/6 
f 12/21/6 11/31/6 14/22/6 
s 32
f 9/24/7 2/30/7 15/25/7 
f 8/27/7 7/32/7 16/28/7 
s 1
f 6/33/8 13/34/8 16/35/8 7/36/8 
f 10/37/9 15/38/9 14/39/9 11/40/9 
s 2
f 13/41/3 14/42/3 15/43/3 16/44/3 
# 10 polygons - 8 triangles

