# 3ds Max Wavefront OBJ Exporter v0.97b - (c)2007 guruware
# File Created: 26.12.2012 14:33:57

mtllib chair.mtl

#
# object Box001
#

v  -0.4342 1.0646 0.3203
v  -0.4342 1.0646 -0.3209
v  -0.3966 0.4517 -0.3209
v  -0.3966 0.4517 0.3203
v  0.3353 0.4224 -0.3209
v  0.3353 0.4224 0.3203
v  -0.3059 0.5224 -0.3209
v  -0.3059 1.0646 -0.3209
v  -0.3059 1.0646 0.3203
v  -0.3059 0.5224 0.3203
v  0.3353 0.5224 0.3203
v  0.3353 0.5224 -0.3209
# 12 vertices

vn -0.9989 -0.0477 0.0000
vn -0.9989 -0.0477 -0.0000
vn -0.0513 -0.9987 -0.0000
vn 1.0000 0.0000 -0.0000
vn -0.0000 1.0000 0.0000
vn 0.0000 1.0000 -0.0000
vn 0.0000 0.0000 -1.0000
vn 0.0000 0.0000 1.0000
# 8 vertex normals

vt 0.6250 0.6606 0.3500
vt 0.3750 0.6606 0.3500
vt 0.3750 0.3541 0.3646
vt 0.6250 0.3541 0.3646
vt 0.6354 0.6250 0.3541
vt 0.3500 0.6250 0.3394
vt 0.3500 0.3750 0.3394
vt 0.6354 0.3750 0.3541
vt 0.6250 0.3894 0.4000
vt 0.6250 0.6606 0.4000
vt 0.3750 0.6606 0.4000
vt 0.3750 0.3894 0.4000
vt 0.6500 0.3750 0.3894
vt 0.6500 0.6250 0.3894
vt 0.4000 0.6250 0.3894
vt 0.4000 0.3750 0.3894
vt 0.3500 0.6250 0.6606
vt 0.3500 0.3750 0.6606
vt 0.4000 0.3750 0.6606
vt 0.4000 0.6250 0.6606
vt 0.6354 0.3541 0.6250
vt 0.6500 0.6606 0.6250
vt 0.6000 0.6606 0.6250
vt 0.6000 0.3894 0.6250
vt 0.3500 0.6606 0.3750
vt 0.3646 0.3541 0.3750
vt 0.4000 0.3894 0.3750
vt 0.4000 0.6606 0.3750
vt 0.3500 0.3394 0.6250
vt 0.3500 0.3894 0.6250
vt 0.3750 0.3394 0.6500
vt 0.6250 0.3394 0.6500
vt 0.6250 0.3894 0.6500
vt 0.3750 0.3894 0.6500
vt 0.6500 0.3394 0.3750
vt 0.6500 0.3894 0.3750
# 36 texture coords

g Box001
usemtl Material__26
s 64
f 1/1/1 2/2/2 3/3/1 4/4/1 
s off
f 3/5/3 5/6/3 6/7/3 4/8/3 
s 64
f 7/9/4 8/10/4 9/11/4 10/12/4 
s off
f 11/13/5 12/14/5 7/15/5 10/16/5 
s 1
f 2/17/6 1/18/6 9/19/6 8/20/6 
s 2
f 3/21/7 2/22/7 8/23/7 7/24/7 
f 1/25/8 4/26/8 10/27/8 9/28/8 
f 5/29/7 3/21/7 7/24/7 12/30/7 
s 1
f 6/31/4 5/32/4 12/33/4 11/34/4 
s 2
f 4/26/8 6/35/8 11/36/8 10/27/8 
# 10 polygons

#
# object Box002
#

v  -0.2968 0.0000 0.2995
v  -0.2968 0.0000 0.1713
v  -0.1685 0.0000 0.1713
v  -0.1685 0.0000 0.2995
v  -0.1685 0.5000 0.2995
v  -0.2968 0.5000 0.2995
v  -0.1685 0.5000 0.1713
v  -0.2968 0.5000 0.1713
v  -0.2898 0.0000 -0.1664
v  -0.2898 0.0000 -0.2947
v  -0.1615 0.0000 -0.2947
v  -0.1615 0.0000 -0.1664
v  -0.1615 0.5000 -0.1664
v  -0.2898 0.5000 -0.1664
v  -0.1615 0.5000 -0.2947
v  -0.2898 0.5000 -0.2947
v  0.1624 0.0000 0.2995
v  0.1624 0.0000 0.1713
v  0.2906 0.0000 0.1713
v  0.2906 0.0000 0.2995
v  0.2906 0.5000 0.2995
v  0.1624 0.5000 0.2995
v  0.2906 0.5000 0.1713
v  0.1624 0.5000 0.1713
v  0.1694 0.0000 -0.1664
v  0.1694 0.0000 -0.2947
v  0.2976 0.0000 -0.2947
v  0.2976 0.0000 -0.1664
v  0.2976 0.5000 -0.1664
v  0.1694 0.5000 -0.1664
v  0.2976 0.5000 -0.2947
v  0.1694 0.5000 -0.2947
# 32 vertices

vn 0.0000 -1.0000 -0.0000
vn 0.0000 0.0000 1.0000
vn 1.0000 0.0000 -0.0000
vn 0.0000 0.0000 -1.0000
vn -1.0000 0.0000 -0.0000
# 5 vertex normals

vt 0.5397 0.6768 0.1606
vt 0.5397 0.7268 0.1606
vt 0.4897 0.7268 0.1606
vt 0.4897 0.6768 0.1606
vt 0.4603 0.1606 0.6768
vt 0.5103 0.1606 0.6768
vt 0.5103 0.4106 0.6768
vt 0.4603 0.4106 0.6768
vt 0.6768 0.1606 0.5103
vt 0.7268 0.1606 0.5103
vt 0.7268 0.4106 0.5103
vt 0.6768 0.4106 0.5103
vt 0.4897 0.1606 0.7268
vt 0.5397 0.1606 0.7268
vt 0.5397 0.4106 0.7268
vt 0.4897 0.4106 0.7268
vt 0.2732 0.1606 0.4603
vt 0.3232 0.1606 0.4603
vt 0.3232 0.4106 0.4603
vt 0.2732 0.4106 0.4603
vt 0.5370 0.8585 0.1606
vt 0.5370 0.9085 0.1606
vt 0.4870 0.9085 0.1606
vt 0.4870 0.8585 0.1606
vt 0.4630 0.1606 0.8585
vt 0.5130 0.1606 0.8585
vt 0.5130 0.4106 0.8585
vt 0.4630 0.4106 0.8585
vt 0.8585 0.1606 0.5130
vt 0.9085 0.1606 0.5130
vt 0.9085 0.4106 0.5130
vt 0.8585 0.4106 0.5130
vt 0.4870 0.1606 0.9085
vt 0.5370 0.1606 0.9085
vt 0.5370 0.4106 0.9085
vt 0.4870 0.4106 0.9085
vt 0.0915 0.1606 0.4630
vt 0.1415 0.1606 0.4630
vt 0.1415 0.4106 0.4630
vt 0.0915 0.4106 0.4630
vt 0.3607 0.6768 0.1606
vt 0.3607 0.7268 0.1606
vt 0.3107 0.7268 0.1606
vt 0.3107 0.6768 0.1606
vt 0.6393 0.1606 0.6768
vt 0.6893 0.1606 0.6768
vt 0.6893 0.4106 0.6768
vt 0.6393 0.4106 0.6768
vt 0.6768 0.1606 0.6893
vt 0.7268 0.1606 0.6893
vt 0.7268 0.4106 0.6893
vt 0.6768 0.4106 0.6893
vt 0.3107 0.1606 0.7268
vt 0.3607 0.1606 0.7268
vt 0.3607 0.4106 0.7268
vt 0.3107 0.4106 0.7268
vt 0.2732 0.1606 0.6393
vt 0.3232 0.1606 0.6393
vt 0.3232 0.4106 0.6393
vt 0.2732 0.4106 0.6393
vt 0.3580 0.8585 0.1606
vt 0.3580 0.9085 0.1606
vt 0.3080 0.9085 0.1606
vt 0.3080 0.8585 0.1606
vt 0.6420 0.1606 0.8585
vt 0.6920 0.1606 0.8585
vt 0.6920 0.4106 0.8585
vt 0.6420 0.4106 0.8585
vt 0.8585 0.1606 0.6920
vt 0.9085 0.1606 0.6920
vt 0.9085 0.4106 0.6920
vt 0.8585 0.4106 0.6920
vt 0.3080 0.1606 0.9085
vt 0.3580 0.1606 0.9085
vt 0.3580 0.4106 0.9085
vt 0.3080 0.4106 0.9085
vt 0.0915 0.1606 0.6420
vt 0.1415 0.1606 0.6420
vt 0.1415 0.4106 0.6420
vt 0.0915 0.4106 0.6420
# 80 texture coords

g Box002
usemtl Material__27
s 2
f 13/37/9 14/38/9 15/39/9 16/40/9 
s 8
f 13/41/10 16/42/10 17/43/10 18/44/10 
s 16
f 16/45/11 15/46/11 19/47/11 17/48/11 
s 32
f 15/49/12 14/50/12 20/51/12 19/52/12 
s 64
f 14/53/13 13/54/13 18/55/13 20/56/13 
s 2
f 21/57/9 22/58/9 23/59/9 24/60/9 
s 8
f 21/61/10 24/62/10 25/63/10 26/64/10 
s 16
f 24/65/11 23/66/11 27/67/11 25/68/11 
s 32
f 23/69/12 22/70/12 28/71/12 27/72/12 
s 64
f 22/73/13 21/74/13 26/75/13 28/76/13 
s 2
f 29/77/9 30/78/9 31/79/9 32/80/9 
s 8
f 29/81/10 32/82/10 33/83/10 34/84/10 
s 16
f 32/85/11 31/86/11 35/87/11 33/88/11 
s 32
f 31/89/12 30/90/12 36/91/12 35/92/12 
s 64
f 30/93/13 29/94/13 34/95/13 36/96/13 
s 2
f 37/97/9 38/98/9 39/99/9 40/100/9 
s 8
f 37/101/10 40/102/10 41/103/10 42/104/10 
s 16
f 40/105/11 39/106/11 43/107/11 41/108/11 
s 32
f 39/109/12 38/110/12 44/111/12 43/112/12 
s 64
f 38/113/13 37/114/13 42/115/13 44/116/13 
# 20 polygons

