# ###############################
# Obj file written by RoadKill1_1
# RoadKill by Andy Swann
# http://www.pullin-shapes.co.uk/
# ###############################
g RoadKillOut
o RoadKillOut
# 8 Vertex coords
v -2.100000 -0.100000 2.100000
v -2.100000 -0.100000 -2.100000
v 2.100000 -0.100000 -2.100000
v 2.100000 -0.100000 2.100000
v -2.100000 4.100000 2.100000
v -2.100000 4.100000 -2.100000
v 2.100000 4.100000 -2.100000
v 2.100000 4.100000 2.100000

# 6 Normal vectors
vn -1.000000 0.000000 0.000000
vn 0.000000 0.000000 -1.000000
vn 1.000000 0.000000 0.000000
vn 0.000000 0.000000 1.000000
vn 0.000000 -1.000000 0.000000
vn 0.000000 1.000000 0.000000

# 24 texture coords
vt 0.333332 0.330032 0.00
vt 0.333332 0.000000 0.00
vt 0.663364 0.000000 0.00
vt 0.663364 0.330032 0.00
vt 0.996697 0.330032 0.00
vt 0.666665 0.330032 0.00
vt 0.666665 0.000000 0.00
vt 0.996697 0.000000 0.00
vt 0.330032 0.663364 0.00
vt 0.000000 0.663364 0.00
vt 0.000000 0.333332 0.00
vt 0.330032 0.333332 0.00
vt 0.000000 0.330032 0.00
vt 0.000000 0.000000 0.00
vt 0.330032 0.000000 0.00
vt 0.330032 0.330032 0.00
vt 0.333332 0.333332 0.00
vt 0.663364 0.333332 0.00
vt 0.663364 0.663364 0.00
vt 0.333332 0.663364 0.00
vt 0.996697 0.333332 0.00
vt 0.996697 0.663364 0.00
vt 0.666665 0.663364 0.00
vt 0.666665 0.333332 0.00

# 6 Faces
f  2/1/1  1/2/1  5/3/1  6/4/1 
f  6/5/2  7/6/2  3/7/2  2/8/2 
f  7/9/3  8/10/3  4/11/3  3/12/3 
f  1/13/4  4/14/4  8/15/4  5/16/4 
f  1/17/5  2/18/5  3/19/5  4/20/5 
f  8/21/6  7/22/6  6/23/6  5/24/6 
