# 3ds Max Wavefront OBJ Exporter v0.97b - (c)2007 guruware
# File Created: 01.11.2012 15:30:47

mtllib house2.mtl

#
# object muren
#

v  -3.5664 4.9443 6.7526
v  -3.6200 0.0074 6.7092
v  0.3962 0.0074 6.8059
v  0.3962 2.9518 6.8059
v  -3.7167 1.2656 1.1058
v  -3.7167 3.2041 1.1058
v  -3.6200 4.9443 -6.5935
v  -3.6200 0.0074 -6.5935
v  -3.7167 3.2041 3.5145
v  -3.7167 1.2656 3.5145
v  3.7584 0.0074 -0.1233
v  3.7584 4.9443 -0.1233
v  3.7047 4.9443 6.7526
v  3.7584 0.0074 6.7092
v  2.2326 2.9518 6.8059
v  2.2326 0.0074 6.8059
v  0.0692 8.8677 6.8059
v  3.5250 4.9443 -6.6902
v  3.5250 0.0074 -6.6902
v  11.0141 0.0074 -6.5935
v  11.0141 4.9443 -6.5935
v  11.0141 4.9443 -0.1233
v  11.0141 0.0074 -0.1233
v  8.3587 1.3041 -0.0267
v  5.9198 1.3041 -0.0267
v  5.9198 3.2074 -0.0267
v  8.3587 3.2074 -0.0267
v  0.3962 0.0074 6.4759
v  -3.3867 0.0074 6.4759
v  -3.3867 4.9443 6.4759
v  0.3962 2.9518 6.4759
v  -3.3867 4.9443 -6.3602
v  -3.3867 3.2041 1.1058
v  -3.3867 1.2656 1.1058
v  -3.3867 0.0074 -6.3602
v  -3.3867 3.2041 3.5145
v  -3.3867 1.2656 3.5145
v  3.5250 4.9443 6.4759
v  3.5250 4.9443 -0.3567
v  3.5250 0.0074 -0.3567
v  3.5250 0.0074 6.4759
v  2.2326 0.0074 6.4759
v  2.2326 2.9518 6.4759
v  0.0692 8.8677 6.4759
v  3.5250 0.0074 -6.3602
v  3.5250 4.9443 -6.3602
v  10.7808 4.9443 -0.3567
v  10.7808 4.9443 -6.3602
v  10.7808 0.0074 -6.3602
v  10.7808 0.0074 -0.3567
v  8.3587 1.3041 -0.3567
v  5.9198 1.3041 -0.3567
v  5.9198 3.2074 -0.3567
v  8.3587 3.2074 -0.3567
# 54 vertices

vn -0.0167 -0.0028 0.9999
vn -0.0241 -0.0085 0.9997
vn -0.0195 -0.0049 0.9998
vn -0.0053 0.0031 1.0000
vn -0.9988 -0.0485 -0.0046
vn -0.9989 0.0462 -0.0026
vn -0.9999 0.0104 -0.0102
vn -0.9999 -0.0079 -0.0113
vn -0.9986 0.0484 0.0203
vn -0.9992 0.0296 0.0270
vn -0.9990 -0.0423 0.0161
vn -0.9996 -0.0102 0.0262
vn 1.0000 0.0043 0.0047
vn 1.0000 0.0000 0.0078
vn 1.0000 0.0065 0.0031
vn 0.9999 0.0109 -0.0000
vn 0.0268 0.0090 0.9996
vn 0.0632 0.0000 0.9980
vn 0.0585 -0.0025 0.9983
vn 0.0216 0.0026 0.9998
vn -0.0002 -0.0000 1.0000
vn -0.0135 0.0000 -0.9999
vn 1.0000 0.0000 -0.0000
vn 0.0129 0.0000 -0.9999
vn 0.0000 -0.0743 0.9972
vn -0.0447 0.0000 0.9990
vn 0.0000 0.0556 0.9985
vn 0.0364 0.0000 0.9993
vn 0.0000 0.0000 -1.0000
vn -1.0000 0.0000 -0.0000
vn 0.0000 0.0000 1.0000
vn 0.0000 -1.0000 -0.0000
vn 0.0000 1.0000 -0.0000
vn 0.7496 0.6617 -0.0161
vn 0.6599 0.6173 -0.4284
vn 0.6648 0.6206 -0.4158
vn 0.7504 0.6610 -0.0000
vn -0.6810 0.6015 -0.4177
vn -0.7335 0.6797 -0.0000
vn -0.7340 0.6790 -0.0160
vn -0.6746 0.5942 -0.4380
# 41 vertex normals

vt 0.8139 2.6293 -9.8188
vt 0.7870 0.1609 -9.7971
vt 2.7952 0.1609 -9.8454
vt 2.7952 1.6331 -9.8454
vt 7.9954 0.7900 0.7387
vt 7.9954 1.7592 0.7387
vt 4.1457 2.6293 0.7870
vt 4.1457 0.1609 0.7870
vt 9.1997 1.7592 0.7387
vt 10.8188 2.6293 0.8139
vt 9.1997 0.7900 0.7387
vt 10.7971 0.1609 0.7870
vt -6.3808 0.1609 4.4762
vt -6.3808 2.6293 4.4762
vt -9.8188 2.6293 4.4494
vt -9.7971 0.1609 4.4762
vt 3.7133 1.6331 -9.8454
vt 3.7133 0.1609 -9.8454
vt 4.4762 0.1609 -9.7971
vt 4.4494 2.6293 -9.8188
vt 2.6316 4.5910 -9.8454
vt 0.2130 2.6293 -3.1457
vt -3.3596 2.6293 -3.0974
vt -3.3596 0.1609 -3.0974
vt 0.2130 0.1609 -3.1457
vt -3.1457 0.1609 8.1041
vt -3.1457 2.6293 8.1041
vt -6.3808 2.6293 8.1041
vt -6.3808 0.1609 8.1041
vt -7.1041 2.6293 -3.1457
vt -7.1041 0.1609 -3.1457
vt 4.4762 0.1609 -6.3808
vt 8.1041 0.1609 -6.3808
vt 6.7764 0.8092 -6.4292
vt 5.5569 0.8092 -6.4292
vt 4.4762 2.6293 -6.3808
vt 5.5569 1.7609 -6.4292
vt 8.1041 2.6293 -6.3808
vt 6.7764 1.7609 -6.4292
vt -1.7952 0.1609 -9.6804
vt 0.0963 0.1609 -9.6804
vt 0.0963 2.6293 -9.6804
vt -1.7952 1.6331 -9.6804
vt -3.2624 2.6293 0.9037
vt -6.9954 1.7592 0.9037
vt -6.9954 0.7900 0.9037
vt -3.2624 0.1609 0.9037
vt -9.6804 2.6293 0.9037
vt -8.1997 1.7592 0.9037
vt -9.6804 0.1609 0.9037
vt -8.1997 0.7900 0.9037
vt 10.6804 2.6293 4.3596
vt 7.2642 2.6293 4.3596
vt 7.2642 0.1609 4.3596
vt 10.6804 0.1609 4.3596
vt -3.3596 0.1609 -9.6804
vt -2.7133 0.1609 -9.6804
vt -2.7133 1.6331 -9.6804
vt -3.3596 2.6293 -9.6804
vt -1.6316 4.5910 -9.6804
vt 4.3596 0.1609 -3.2624
vt 4.3596 2.6293 -3.2624
vt 0.9037 2.6293 -3.2624
vt 0.9037 0.1609 -3.2624
vt 7.2642 2.6293 7.9874
vt 4.2624 2.6293 7.9874
vt 4.2624 0.1609 7.9874
vt 7.2642 0.1609 7.9874
vt 7.9874 2.6293 -3.2624
vt 7.9874 0.1609 -3.2624
vt -5.7764 0.8092 -6.2642
vt -6.9874 0.1609 -6.2642
vt -3.3596 0.1609 -6.2642
vt -4.5569 0.8092 -6.2642
vt -3.3596 2.6293 -6.2642
vt -4.5569 1.7609 -6.2642
vt -6.9874 2.6293 -6.2642
vt -5.7764 1.7609 -6.2642
vt -1.7952 -9.8454 0.1609
vt 0.2130 -9.7971 0.1609
vt 0.0963 -9.6804 0.1609
vt -1.7952 -9.6804 0.1609
vt -9.8454 1.6331 2.7952
vt -9.8454 0.1609 2.7952
vt -9.6804 0.1609 2.7952
vt -9.6804 1.6331 2.7952
vt 0.7387 1.7592 -6.9954
vt 0.7387 0.7900 -6.9954
vt 0.9037 0.7900 -6.9954
vt 0.9037 1.7592 -6.9954
vt 0.2613 -8.1997 1.7592
vt 0.2613 -6.9954 1.7592
vt 0.0963 -6.9954 1.7592
vt 0.0963 -8.1997 1.7592
vt 0.7870 -3.1457 2.6293
vt 0.8139 -9.8188 2.6293
vt 0.9037 -9.6804 2.6293
vt 0.9037 -3.2624 2.6293
vt 0.2613 0.7900 -8.1997
vt 0.2613 1.7592 -8.1997
vt 0.0963 1.7592 -8.1997
vt 0.0963 0.7900 -8.1997
vt 0.2130 -3.1457 0.1609
vt 0.0963 -3.2624 0.1609
vt 0.7387 -6.9954 0.7900
vt 0.7387 -8.1997 0.7900
vt 0.9037 -8.1997 0.7900
vt 0.9037 -6.9954 0.7900
vt 4.4494 -9.8188 2.6293
vt 4.4762 -6.3808 2.6293
vt 4.3596 -6.2642 2.6293
vt 4.3596 -9.6804 2.6293
vt -3.4762 -6.3808 0.1609
vt -3.4762 -9.7971 0.1609
vt -3.3596 -9.6804 0.1609
vt -3.3596 -6.2642 0.1609
vt 10.8454 0.1609 3.7133
vt 10.8454 1.6331 3.7133
vt 10.6804 1.6331 3.7133
vt 10.6804 0.1609 3.7133
vt -2.7133 -9.8454 0.1609
vt -2.7133 -9.6804 0.1609
vt -2.7133 -9.8454 1.6331
vt -1.7952 -9.8454 1.6331
vt -1.7952 -9.6804 1.6331
vt -2.7133 -9.6804 1.6331
vt -9.8454 4.5910 2.6316
vt -9.6804 2.6293 4.3596
vt -9.6804 4.5910 2.6316
vt 10.8454 4.5910 2.6316
vt 10.6804 4.5910 2.6316
vt 10.6804 2.6293 0.9037
vt 4.3596 -3.0974 2.6293
vt 4.3596 -3.2624 2.6293
vt -3.3596 -3.0974 0.1609
vt -3.3596 -3.2624 0.1609
vt 8.1041 -6.3808 2.6293
vt 8.1041 -3.1457 2.6293
vt 7.9874 -3.2624 2.6293
vt 7.9874 -6.2642 2.6293
vt -7.1041 -3.1457 0.1609
vt -7.1041 -6.3808 0.1609
vt -6.9874 -6.2642 0.1609
vt -6.9874 -3.2624 0.1609
vt 5.5569 -6.4292 0.8092
vt 6.7764 -6.4292 0.8092
vt 6.7764 -6.2642 0.8092
vt 5.5569 -6.2642 0.8092
vt -6.4292 1.7609 5.5569
vt -6.4292 0.8092 5.5569
vt -6.2642 0.8092 5.5569
vt -6.2642 1.7609 5.5569
vt -5.7764 -6.4292 1.7609
vt -4.5569 -6.4292 1.7609
vt -4.5569 -6.2642 1.7609
vt -5.7764 -6.2642 1.7609
vt 7.4292 0.8092 6.7764
vt 7.4292 1.7609 6.7764
vt 7.2642 1.7609 6.7764
vt 7.2642 0.8092 6.7764
# 160 texture coords

g muren
usemtl Material__15
s 8
f 1/1/1 2/2/2 3/3/3 4/4/4 
s 64
f 5/5/5 6/6/6 7/7/7 8/8/8 
f 6/6/6 9/9/9 1/10/10 7/7/7 
f 10/11/11 2/12/12 1/10/10 9/9/9 
f 5/5/5 8/8/8 2/12/12 10/11/11 
s 16
f 11/13/13 12/14/14 13/15/15 14/16/16 
s 8
f 15/17/17 16/18/18 14/19/19 13/20/20 
f 4/4/4 15/17/17 13/20/20 17/21/21 
f 1/1/1 4/4/4 17/21/21 
s 32
f 7/22/22 18/23/22 19/24/22 8/25/22 
s 16
f 20/26/23 21/27/23 22/28/23 23/29/23 
s off
f 19/24/24 18/23/24 21/30/24 20/31/24 
f 11/32/25 23/33/25 24/34/25 25/35/25 
f 12/36/26 11/32/26 25/35/26 26/37/26 
f 22/38/27 12/36/27 26/37/27 27/39/27 
f 22/38/28 27/39/28 24/34/28 23/33/28 
s 8
f 28/40/29 29/41/29 30/42/29 31/43/29 
s 64
f 32/44/23 33/45/23 34/46/23 35/47/23 
f 30/48/23 36/49/23 33/45/23 32/44/23 
f 30/48/23 29/50/23 37/51/23 36/49/23 
f 29/50/23 35/47/23 34/46/23 37/51/23 
s 16
f 38/52/30 39/53/30 40/54/30 41/55/30 
s 8
f 41/56/29 42/57/29 43/58/29 38/59/29 
f 38/59/29 43/58/29 31/43/29 44/60/29 
f 44/60/29 31/43/29 30/42/29 
s 32
f 45/61/31 46/62/31 32/63/31 35/64/31 
s 16
f 47/65/30 48/66/30 49/67/30 50/68/30 
s off
f 48/69/31 46/62/31 45/61/31 49/70/31 
f 51/71/29 50/72/29 40/73/29 52/74/29 
f 52/74/29 40/73/29 39/75/29 53/76/29 
f 53/76/29 39/75/29 47/77/29 54/78/29 
f 51/71/29 54/78/29 47/77/29 50/72/29 
s 1
f 3/79/32 2/80/32 29/81/32 28/82/32 
s 2
f 4/83/23 3/84/23 28/85/23 31/86/23 
s 1
f 6/87/31 5/88/31 34/89/31 33/90/31 
s 2
f 9/91/32 6/92/32 33/93/32 36/94/32 
s 1
f 7/95/33 1/96/33 30/97/33 32/98/33 
f 10/99/29 9/100/29 36/101/29 37/102/29 
f 2/80/32 8/103/32 35/104/32 29/81/32 
s 2
f 5/105/33 10/106/33 37/107/33 34/108/33 
s 1
f 13/109/33 12/110/33 39/111/33 38/112/33 
f 11/113/32 14/114/32 41/115/32 40/116/32 
s 2
f 16/117/30 15/118/30 43/119/30 42/120/30 
s 1
f 14/114/32 16/121/32 42/122/32 41/115/32 
f 15/123/32 4/124/32 31/125/32 43/126/32 
s 2
f 17/127/34 13/15/35 38/128/36 44/129/37 
s 4
f 1/10/38 17/130/39 44/131/40 30/132/41 
s 1
f 18/133/33 7/95/33 32/98/33 46/134/33 
f 8/103/32 19/135/32 45/136/32 35/104/32 
f 22/137/33 21/138/33 48/139/33 47/140/33 
f 20/141/32 23/142/32 50/143/32 49/144/32 
f 21/138/33 18/133/33 46/134/33 48/139/33 
f 19/135/32 20/141/32 49/144/32 45/136/32 
f 23/142/32 11/113/32 40/116/32 50/143/32 
f 25/145/33 24/146/33 51/147/33 52/148/33 
s 2
f 26/149/23 25/150/23 52/151/23 53/152/23 
s 1
f 12/110/33 22/137/33 47/140/33 39/111/33 
f 27/153/32 26/154/32 53/155/32 54/156/32 
s 2
f 24/157/30 27/158/30 54/159/30 51/160/30 
# 57 polygons - 2 triangles

#
# object Object001
#

v  0.0056 9.1950 -3.6251
v  -3.6988 5.0973 -3.5576
v  -3.6988 5.0973 6.9035
v  0.0720 9.2089 6.9035
v  3.7411 5.1360 0.0765
v  3.8428 5.0973 6.9035
v  11.3209 5.1381 0.0758
v  11.3209 5.1381 -7.1910
v  7.7285 9.2018 -3.5576
v  3.5951 5.0960 -7.2934
v  -3.5979 5.1360 -7.1910
v  3.5250 5.2743 -6.3602
v  3.5250 5.2743 -0.3567
v  10.7808 5.2743 -0.3567
v  10.7808 5.2743 -6.3602
v  -3.4511 4.8791 6.9035
v  -3.4511 4.8791 -3.5576
v  0.0720 8.8789 -3.5576
v  0.0720 8.8789 6.9035
v  3.5952 4.8791 -0.0706
v  3.5952 4.8791 6.9035
v  7.6511 8.8810 -3.5576
v  11.1742 4.8813 -7.0446
v  11.1742 4.8813 -0.0706
v  3.5952 4.8791 -7.0446
v  -3.4511 4.8791 -7.0446
v  10.7808 4.9443 -0.3567
v  3.5250 4.9443 -0.3567
v  3.5250 4.9443 -6.3602
v  10.7808 4.9443 -6.3602
# 30 vertices

vn -0.3842 0.9232 -0.0051
vn -0.7419 0.6705 -0.0066
vn -0.7385 0.6743 0.0026
vn 0.0034 1.0000 -0.0020
vn 0.7379 0.6749 -0.0061
vn 0.7370 0.6759 -0.0071
vn 0.7492 0.6623 -0.0000
vn -0.0036 0.6684 0.7438
vn 0.0060 0.6696 -0.7427
vn -0.7419 0.6704 -0.0135
vn -0.0070 0.6635 -0.7482
vn 0.0000 1.0000 -0.0000
vn 0.7504 -0.6610 -0.0000
vn 0.3862 -0.9224 -0.0000
vn 0.0000 -1.0000 -0.0000
vn -0.7504 -0.6610 -0.0000
vn 0.0002 -0.6570 -0.7538
vn 0.0002 -0.6570 0.7538
vn 0.0000 -0.6571 0.7538
vn -0.6610 -0.7504 -0.0000
vn -0.6673 -0.7448 -0.0008
vn 0.0000 0.0000 1.0000
vn 0.8656 -0.5008 -0.0003
vn 0.6609 -0.7503 -0.0141
vn 0.6676 -0.7444 -0.0137
vn 0.8694 -0.4941 -0.0000
vn 0.8684 -0.4959 -0.0000
vn 0.0001 -0.4954 0.8687
vn 0.0002 -0.4971 0.8677
vn 0.0001 -0.4953 0.8687
vn -0.0065 -0.7512 -0.6601
vn 0.0142 -0.5013 -0.8652
vn 0.0139 -0.5073 -0.8617
vn -0.0065 -0.7510 -0.6603
vn -0.8606 -0.5084 -0.0293
vn -0.8533 -0.5207 -0.0280
vn -0.0006 -0.5069 -0.8620
vn 0.0000 -0.4951 -0.8688
vn -1.0000 0.0000 -0.0000
vn 1.0000 0.0000 -0.0000
vn 0.0000 0.0000 -1.0000
# 41 vertex normals

vt 5.6300 4.7547 2.5999
vt 5.6637 2.7058 0.7477
vt 10.8942 2.7058 0.7477
vt 10.8942 4.7616 2.6331
vt -6.4808 2.7252 4.4676
vt -4.6300 4.7547 2.5999
vt -9.8942 4.7616 2.6331
vt -9.8942 2.7058 4.5185
vt -6.4804 2.7262 8.2575
vt -2.8470 2.7262 8.2575
vt -4.6637 4.7581 6.4613
vt 2.5999 4.7547 -4.6300
vt 4.4676 2.7252 -6.4808
vt 8.2575 2.7262 -6.4804
vt 6.4613 4.7581 -4.6637
vt -3.3946 2.7052 -2.7958
vt -1.5999 4.7547 -4.6300
vt -5.4613 4.7581 -4.6637
vt -7.2575 2.7262 -2.8470
vt 3.8470 2.7252 0.7981
vt 0.2019 2.7252 -2.8470
vt 4.3596 -3.2624 2.7943
vt 4.3596 -6.2642 2.7943
vt 7.9874 -6.2642 2.7943
vt 7.9874 -3.2624 2.7943
vt -9.8942 2.5967 0.8715
vt -4.6637 2.5967 0.8715
vt -4.6637 4.5966 2.6331
vt -9.8942 4.5966 2.6331
vt 10.8942 4.5966 2.6331
vt 5.6637 4.5966 2.6331
vt 7.4072 2.5967 4.3946
vt 10.8942 2.5967 4.3946
vt 5.6637 4.5977 6.4226
vt 3.9202 2.5978 8.1842
vt 7.4072 2.5978 8.1842
vt -7.1842 2.5978 -6.4072
vt -3.3946 2.5967 -6.4072
vt -1.6331 4.5966 -4.6637
vt -5.4226 4.5977 -4.6637
vt 6.4226 4.5977 -4.6637
vt 2.6331 4.5966 -4.6637
vt 4.3946 2.5967 -2.9202
vt 8.1842 2.5978 -2.9202
vt -2.9202 2.5967 0.8715
vt 0.8715 2.5967 -2.9202
vt -6.9874 -6.2642 2.6293
vt -3.3596 -6.2642 2.6293
vt -3.3596 -3.2624 2.6293
vt -6.9874 -3.2624 2.6293
vt 0.2523 -9.8942 2.7058
vt 0.2523 -4.6637 2.7058
vt 0.1285 -4.6637 2.5967
vt 0.1285 -9.8942 2.5967
vt 2.6331 4.7616 -9.8942
vt 0.7477 2.7058 -9.8942
vt 0.8715 2.5967 -9.8942
vt 2.6331 4.5966 -9.8942
vt 4.5185 2.7058 -9.8942
vt 4.3946 2.5967 -9.8942
vt -3.4676 -6.4808 2.7252
vt -3.5185 -9.8942 2.7058
vt -3.3946 -9.8942 2.5967
vt -3.3622 -6.4079 2.6336
vt -6.4072 2.5978 8.1842
vt -2.9202 2.5978 8.1842
vt 4.3946 2.5967 -6.4072
vt 8.1842 2.5978 -6.4072
vt -3.3946 -2.7958 2.7052
vt -7.2575 -2.8150 2.6895
vt -7.1842 -2.9202 2.5978
vt -3.3946 -2.9202 2.5967
vt 0.2335 -2.8470 2.6892
vt 0.1285 -2.9202 2.5967
vt 0.2019 -2.8470 2.7252
vt 0.1279 -2.9515 2.6327
vt 7.2642 2.7943 4.3596
vt 4.2624 2.7943 4.3596
vt 4.2624 2.6293 4.3596
vt 7.2642 2.6293 4.3596
vt 7.9874 2.7943 -6.2642
vt 4.3596 2.7943 -6.2642
vt 4.3596 2.6293 -6.2642
vt 7.9874 2.6293 -6.2642
vt -3.2624 2.7943 7.9874
vt -6.2642 2.7943 7.9874
vt -6.2642 2.6293 7.9874
vt -3.2624 2.6293 7.9874
vt -3.3596 2.7943 -3.2624
vt -6.9874 2.7943 -3.2624
vt -6.9874 2.6293 -3.2624
vt -3.3596 2.6293 -3.2624
# 92 texture coords

g Object001
usemtl Material__44
s 4
f 55/161/42 56/162/43 57/163/44 58/164/45 
f 59/165/46 55/166/42 58/167/45 60/168/47 
f 61/169/48 62/170/48 63/171/48 
s off
f 55/172/49 59/173/49 61/174/49 63/175/49 
f 64/176/50 55/177/50 63/178/50 62/179/50 
s 4
f 55/161/42 65/180/51 56/162/43 
s off
f 55/177/52 64/176/52 65/181/52 
f 66/182/53 67/183/53 68/184/53 69/185/53 
s 4
f 70/186/54 71/187/54 72/188/55 73/189/56 
f 73/190/56 72/191/55 74/192/57 75/193/57 
f 76/194/57 77/195/57 78/196/57 
s off
f 78/197/58 74/198/58 72/199/58 76/200/58 
f 76/201/59 72/202/59 79/203/59 77/204/59 
s 4
f 71/187/54 80/205/54 72/188/55 
s off
f 80/206/60 79/203/60 72/202/60 
f 81/207/56 82/208/56 83/209/56 84/210/56 
s 1
f 57/211/61 56/212/62 71/213/61 70/214/61 
s 2
f 58/215/63 57/216/63 70/217/63 73/218/63 
f 60/219/63 58/215/63 73/218/63 75/220/63 
s 1
f 59/221/64 60/222/65 75/223/66 74/224/67 
f 62/170/68 61/169/68 78/225/68 77/226/68 
s 2
f 61/174/69 59/173/70 74/227/70 78/228/71 
f 64/229/72 62/230/73 77/231/74 79/232/75 
s 1
f 56/212/62 65/233/76 80/234/77 71/213/61 
s 2
f 65/235/78 64/229/72 79/232/75 80/236/79 
s 1
f 67/237/80 66/238/80 83/239/80 82/240/80 
s 2
f 68/241/63 67/242/63 82/243/63 81/244/63 
s 1
f 69/245/81 68/246/81 81/247/81 84/248/81 
s 2
f 66/249/82 69/250/82 84/251/82 83/252/82 
# 23 polygons - 6 triangles

#
# object Object002
#

v  -3.5232 -0.1256 -0.3018
v  3.5232 -0.1256 -0.3018
v  3.5232 -0.1256 6.5430
v  -3.5232 -0.1256 6.5430
v  -3.5232 -0.1256 -6.5430
v  3.5232 -0.1256 -6.5430
v  10.7184 -0.1256 -6.5430
v  10.7184 -0.1256 -0.3018
v  3.5232 0.2044 6.5430
v  3.5232 0.2044 -0.3018
v  -3.5232 0.2044 -0.3018
v  -3.5232 0.2044 6.5430
v  3.5232 0.2044 -6.5430
v  -3.5232 0.2044 -6.5430
v  10.7184 0.2044 -6.5430
v  10.7184 0.2044 -0.3018
# 16 vertices

vn 0.0000 -1.0000 -0.0000
vn 0.0000 -0.8944 0.4472
vn 0.0000 1.0000 -0.0000
vn 0.0000 0.8944 0.4472
vn 1.0000 0.0000 -0.0000
vn 0.0000 0.0000 1.0000
vn -1.0000 0.0000 -0.0000
vn 0.0000 0.0000 -1.0000
# 8 vertex normals

vt 0.1645 -6.2916 0.0944
vt -3.3586 -6.2916 0.0944
vt -3.3586 -9.7140 0.0944
vt 0.1645 -9.7140 0.0944
vt 0.1645 -3.1710 0.0944
vt -3.3586 -3.1710 0.0944
vt -6.9563 -3.1710 0.0944
vt -6.9563 -6.2916 0.0944
vt 4.3586 -9.7140 0.2594
vt 4.3586 -6.2916 0.2594
vt 0.8355 -6.2916 0.2594
vt 0.8355 -9.7140 0.2594
vt 4.3586 -3.1710 0.2594
vt 0.8355 -3.1710 0.2594
vt 7.9563 -3.1710 0.2594
vt 7.9563 -6.2916 0.2594
vt -9.7140 0.0944 4.3586
vt -6.2916 0.0944 4.3586
vt -6.2916 0.2594 4.3586
vt -9.7140 0.2594 4.3586
vt 0.8355 0.0944 -9.7140
vt 4.3586 0.0944 -9.7140
vt 4.3586 0.2594 -9.7140
vt 0.8355 0.2594 -9.7140
vt 7.2916 0.0944 0.8355
vt 10.7140 0.0944 0.8355
vt 10.7140 0.2594 0.8355
vt 7.2916 0.2594 0.8355
vt -3.3586 0.0944 -3.1710
vt 0.1645 0.0944 -3.1710
vt 0.1645 0.2594 -3.1710
vt -3.3586 0.2594 -3.1710
vt 4.1710 0.0944 0.8355
vt 4.1710 0.2594 0.8355
vt -6.9563 0.0944 -3.1710
vt -6.9563 0.2594 -3.1710
vt -6.2916 0.0944 7.9563
vt -3.1710 0.0944 7.9563
vt -3.1710 0.2594 7.9563
vt -6.2916 0.2594 7.9563
vt 4.3586 0.0944 -6.2916
vt 7.9563 0.0944 -6.2916
vt 7.9563 0.2594 -6.2916
vt 4.3586 0.2594 -6.2916
# 44 texture coords

g Object002
usemtl Material__46
s 2
f 85/253/83 86/254/84 87/255/83 88/256/83 
f 89/257/83 90/258/83 86/254/84 85/253/83 
s off
f 86/254/83 90/258/83 91/259/83 92/260/83 
s 2
f 93/261/85 94/262/86 95/263/85 96/264/85 
f 94/262/86 97/265/85 98/266/85 95/263/85 
s off
f 99/267/85 97/265/85 94/262/85 100/268/85 
s 1
f 87/269/87 86/270/87 94/271/87 93/272/87 
s 4
f 88/273/88 87/274/88 93/275/88 96/276/88 
s 1
f 85/277/89 88/278/89 96/279/89 95/280/89 
s 4
f 90/281/90 89/282/90 98/283/90 97/284/90 
s 1
f 89/285/89 85/277/89 95/280/89 98/286/89 
s 4
f 91/287/90 90/281/90 97/284/90 99/288/90 
s 1
f 92/289/87 91/290/87 99/291/87 100/292/87 
s 2
f 86/293/84 92/294/88 100/295/88 94/296/86 
# 14 polygons

#
# object Object003
#

v  -2.6727 0.7597 -4.5349
v  -1.6727 0.7597 -5.5349
v  -2.2168 0.7597 -6.0790
v  -3.2168 0.7597 -5.0790
# 4 vertices

vn 0.0000 1.0000 -0.0000
# 1 vertex normals

vt -6.7200 -1.8434 -4.5895
vt -6.2536 -1.8434 -4.5895
vt -6.2536 -1.5897 -4.5895
vt -6.7200 -1.5897 -4.5895
# 4 texture coords

g Object003
usemtl Material__43
s off
f 101/297/91 102/298/91 103/299/91 104/300/91 
# 1 polygons

