# 3ds Max Wavefront OBJ Exporter v0.97b - (c)2007 guruware
# File Created: 29.10.2012 23:55:46

mtllib house1.mtl

#
# object muren
#

v  -3.5664 4.9443 6.7526
v  -3.6200 0.0074 6.7092
v  0.3962 0.0074 6.8059
v  0.3962 2.9518 6.8059
v  3.7584 0.0074 6.7092
v  3.7584 0.0074 -6.5935
v  3.8550 1.2656 -4.3298
v  3.8550 1.2656 -1.9211
v  -3.7167 1.2656 1.1058
v  -3.7167 3.2041 1.1058
v  -3.5664 4.9443 -6.6369
v  -3.6200 0.0074 -6.5935
v  -3.7167 3.2041 3.5145
v  -3.7167 1.2656 3.5145
v  3.8550 3.2041 -4.3298
v  3.7047 4.9443 -6.6369
v  3.7047 4.9443 6.7526
v  3.8550 3.2041 -1.9211
v  2.2326 2.9518 6.8059
v  2.2326 0.0074 6.8059
v  1.2095 5.6979 -6.6902
v  0.6393 4.7103 -6.6902
v  -0.5010 4.7103 6.8059
v  0.6393 4.7103 6.8059
v  -0.5010 6.6854 6.8059
v  0.6393 6.6854 6.8059
v  0.0692 8.8677 6.8059
v  -0.5010 6.6854 -6.6902
v  -1.0711 5.6979 -6.6902
v  0.0692 8.8677 -6.6902
v  0.6393 6.6854 -6.6902
v  1.2095 5.6979 6.8059
v  -0.5010 4.7103 -6.6902
v  -1.0711 5.6979 6.8059
v  0.3962 0.0074 6.4759
v  -3.3867 0.0074 6.4759
v  -3.3867 4.9443 6.4759
v  0.3962 2.9518 6.4759
v  3.5250 1.2656 -4.3298
v  3.5250 0.0074 -6.3602
v  3.5250 0.0074 6.4759
v  3.5250 1.2656 -1.9211
v  -3.3867 4.9443 -6.3602
v  -3.3867 3.2041 1.1058
v  -3.3867 1.2656 1.1058
v  -3.3867 0.0074 -6.3602
v  -3.3867 3.2041 3.5145
v  -3.3867 1.2656 3.5145
v  3.5250 4.9443 6.4759
v  3.5250 4.9443 -6.3602
v  3.5250 3.2041 -4.3298
v  3.5250 3.2041 -1.9211
v  2.2326 0.0074 6.4759
v  2.2326 2.9518 6.4759
v  1.2095 5.6979 -6.3602
v  0.6393 4.7103 -6.3602
v  -0.5010 4.7103 6.4759
v  0.6393 4.7103 6.4759
v  0.0692 8.8677 6.4759
v  0.6393 6.6854 6.4759
v  -0.5010 6.6854 6.4759
v  -1.0711 5.6979 -6.3602
v  -0.5010 6.6854 -6.3602
v  0.0692 8.8677 -6.3602
v  0.6393 6.6854 -6.3602
v  1.2095 5.6979 6.4759
v  -0.5010 4.7103 -6.3602
v  -1.0711 5.6979 6.4759
# 68 vertices

vn -0.0200 -0.0035 0.9998
vn -0.0241 -0.0085 0.9997
vn -0.0195 -0.0049 0.9998
vn -0.0082 -0.0012 1.0000
vn 0.9999 0.0027 0.0116
vn 0.9992 -0.0206 -0.0347
vn 0.9989 -0.0429 -0.0188
vn 0.9989 -0.0475 0.0058
vn -0.9989 -0.0471 -0.0065
vn -0.9985 0.0534 -0.0074
vn -0.9997 0.0199 -0.0130
vn -0.9999 0.0018 -0.0128
vn -0.9986 0.0484 0.0203
vn -0.9991 0.0321 0.0263
vn -0.9990 -0.0423 0.0161
vn -0.9996 -0.0102 0.0262
vn 0.9985 0.0491 -0.0251
vn 0.9986 0.0418 -0.0336
vn 0.9998 0.0189 0.0117
vn 0.9985 0.0538 0.0065
vn 0.0318 -0.0017 0.9995
vn 0.0632 0.0000 0.9980
vn 0.0585 -0.0025 0.9983
vn 0.0300 0.0044 0.9995
vn 0.0202 0.0006 -0.9998
vn 0.0199 -0.0048 -0.9998
vn 0.0067 -0.0162 -0.9998
vn 0.0080 -0.0152 -0.9999
vn -0.0133 -0.0071 0.9999
vn 0.0000 0.0000 1.0000
vn -0.0147 0.0049 0.9999
vn 0.0147 0.0049 0.9999
vn 0.0000 0.0035 1.0000
vn -0.0147 0.0049 -0.9999
vn -0.0223 0.0046 -0.9997
vn -0.0196 -0.0046 -0.9998
vn -0.0003 0.0041 -1.0000
vn 0.0000 0.0000 -1.0000
vn 0.0200 0.0105 0.9997
vn -0.0080 -0.0152 -0.9999
vn -0.0067 -0.0162 -0.9998
vn -0.0225 0.0040 0.9997
vn -1.0000 0.0000 -0.0000
vn 1.0000 0.0000 -0.0000
vn 0.0000 -1.0000 -0.0000
vn 0.0000 1.0000 -0.0000
vn -0.8660 0.5000 -0.0000
vn 0.8660 -0.5000 -0.0000
vn -0.7496 0.6617 0.0161
vn -0.6599 0.6173 0.4284
vn -0.6648 0.6206 0.4158
vn -0.7504 0.6610 -0.0000
vn -0.8660 -0.5000 -0.0000
vn 0.7496 0.6617 -0.0161
vn 0.6599 0.6173 -0.4284
vn 0.6648 0.6206 -0.4158
vn 0.7504 0.6610 -0.0000
vn 0.6810 0.6015 0.4177
vn 0.7335 0.6797 -0.0000
vn 0.7340 0.6790 0.0160
vn 0.6746 0.5942 0.4380
vn 0.8660 0.5000 -0.0000
vn -0.6810 0.6015 -0.4177
vn -0.7335 0.6797 -0.0000
vn -0.7340 0.6790 -0.0160
vn -0.6746 0.5942 -0.4380
# 66 vertex normals

vt 0.8139 2.6293 -9.8188
vt 0.7870 0.1609 -9.7971
vt 2.7952 0.1609 -9.8454
vt 2.7952 1.6331 -9.8454
vt -9.7971 0.1609 4.4762
vt -3.1457 0.1609 4.4762
vt -4.2776 0.7900 4.5246
vt -5.4820 0.7900 4.5246
vt 7.9954 0.7900 0.7387
vt 7.9954 1.7592 0.7387
vt 4.1240 2.6293 0.8139
vt 4.1457 0.1609 0.7870
vt 9.1997 1.7592 0.7387
vt 10.8188 2.6293 0.8139
vt 9.1997 0.7900 0.7387
vt 10.7971 0.1609 0.7870
vt -4.2776 1.7592 4.5246
vt -3.1240 2.6293 4.4494
vt -9.8188 2.6293 4.4494
vt -5.4820 1.7592 4.5246
vt 3.7133 1.6331 -9.8454
vt 3.7133 0.1609 -9.8454
vt 4.4762 0.1609 -9.7971
vt 4.4494 2.6293 -9.8188
vt -2.2018 3.0061 -3.0974
vt -3.4494 2.6293 -3.1240
vt -3.4762 0.1609 -3.1457
vt -1.9167 2.5123 -3.0974
vt 2.3466 2.5123 -9.8454
vt 2.9167 2.5123 -9.8454
vt 2.3466 3.4999 -9.8454
vt 2.9167 3.4999 -9.8454
vt 2.6316 4.5910 -9.8454
vt -1.3466 3.4999 -3.0974
vt -1.0615 3.0061 -3.0974
vt 0.1861 2.6293 -3.1240
vt -1.6316 4.5910 -3.0974
vt -1.9167 3.4999 -3.0974
vt 3.2018 3.0061 -9.8454
vt -1.3466 2.5123 -3.0974
vt 0.2130 0.1609 -3.1457
vt 2.0615 3.0061 -9.8454
vt -1.7952 0.1609 -9.6804
vt 0.0963 0.1609 -9.6804
vt 0.0963 2.6293 -9.6804
vt -1.7952 1.6331 -9.6804
vt 5.2776 0.7900 4.3596
vt 4.2624 0.1609 4.3596
vt 10.6804 0.1609 4.3596
vt 6.4820 0.7900 4.3596
vt -3.2624 2.6293 0.9037
vt -6.9954 1.7592 0.9037
vt -6.9954 0.7900 0.9037
vt -3.2624 0.1609 0.9037
vt -9.6804 2.6293 0.9037
vt -8.1997 1.7592 0.9037
vt -9.6804 0.1609 0.9037
vt -8.1997 0.7900 0.9037
vt 10.6804 2.6293 4.3596
vt 4.2624 2.6293 4.3596
vt 5.2776 1.7592 4.3596
vt 6.4820 1.7592 4.3596
vt -3.3596 0.1609 -9.6804
vt -2.7133 0.1609 -9.6804
vt -2.7133 1.6331 -9.6804
vt -3.3596 2.6293 -9.6804
vt 4.3596 0.1609 -3.2624
vt 4.3596 2.6293 -3.2624
vt 3.2018 3.0061 -3.2624
vt 2.9167 2.5123 -3.2624
vt -1.3466 2.5123 -9.6804
vt -1.9167 2.5123 -9.6804
vt -1.6316 4.5910 -9.6804
vt -1.9167 3.4999 -9.6804
vt -1.3466 3.4999 -9.6804
vt 0.9037 2.6293 -3.2624
vt 2.0615 3.0061 -3.2624
vt 2.3466 3.4999 -3.2624
vt 2.6316 4.5910 -3.2624
vt 2.9167 3.4999 -3.2624
vt -2.2018 3.0061 -9.6804
vt 0.9037 0.1609 -3.2624
vt 2.3466 2.5123 -3.2624
vt -1.0615 3.0061 -9.6804
vt -1.7952 -9.8454 0.1609
vt 0.2130 -9.7971 0.1609
vt 0.0963 -9.6804 0.1609
vt -1.7952 -9.6804 0.1609
vt -9.8454 1.6331 2.7952
vt -9.8454 0.1609 2.7952
vt -9.6804 0.1609 2.7952
vt -9.6804 1.6331 2.7952
vt -3.4762 -3.1457 0.1609
vt -3.4762 -9.7971 0.1609
vt -3.3596 -9.6804 0.1609
vt -3.3596 -3.2624 0.1609
vt 4.5246 -5.4820 0.7900
vt 4.5246 -4.2776 0.7900
vt 4.3596 -4.2776 0.7900
vt 4.3596 -5.4820 0.7900
vt 0.7387 1.7592 -6.9954
vt 0.7387 0.7900 -6.9954
vt 0.9037 0.7900 -6.9954
vt 0.9037 1.7592 -6.9954
vt 0.2613 -8.1997 1.7592
vt 0.2613 -6.9954 1.7592
vt 0.0963 -6.9954 1.7592
vt 0.0963 -8.1997 1.7592
vt 0.8139 -3.1240 2.6293
vt 0.8139 -9.8188 2.6293
vt 0.9037 -9.6804 2.6293
vt 0.9037 -3.2624 2.6293
vt 0.2613 0.7900 -8.1997
vt 0.2613 1.7592 -8.1997
vt 0.0963 1.7592 -8.1997
vt 0.0963 0.7900 -8.1997
vt 0.2130 -3.1457 0.1609
vt 0.0963 -3.2624 0.1609
vt 0.7387 -6.9954 0.7900
vt 0.7387 -8.1997 0.7900
vt 0.9037 -8.1997 0.7900
vt 0.9037 -6.9954 0.7900
vt 4.4494 -9.8188 2.6293
vt 4.4494 -3.1240 2.6293
vt 4.3596 -3.2624 2.6293
vt 4.3596 -9.6804 2.6293
vt -3.5246 -4.2776 1.7592
vt -3.5246 -5.4820 1.7592
vt -3.3596 -5.4820 1.7592
vt -3.3596 -4.2776 1.7592
vt -3.5246 1.7592 -5.4820
vt -3.5246 0.7900 -5.4820
vt -3.3596 0.7900 -5.4820
vt -3.3596 1.7592 -5.4820
vt 4.5246 0.7900 -4.2776
vt 4.5246 1.7592 -4.2776
vt 4.3596 1.7592 -4.2776
vt 4.3596 0.7900 -4.2776
vt 10.8454 0.1609 3.7133
vt 10.8454 1.6331 3.7133
vt 10.6804 1.6331 3.7133
vt 10.6804 0.1609 3.7133
vt -2.7133 -9.8454 0.1609
vt -2.7133 -9.6804 0.1609
vt 4.0974 3.0061 3.2018
vt 4.0974 2.5123 2.9167
vt 4.2624 2.5123 2.9167
vt 4.2624 3.0061 3.2018
vt -2.7133 -9.8454 1.6331
vt -1.7952 -9.8454 1.6331
vt -1.7952 -9.6804 1.6331
vt -2.7133 -9.6804 1.6331
vt 2.3466 -9.8454 2.5123
vt 2.9167 -9.8454 2.5123
vt 2.9167 -9.6804 2.5123
vt 2.3466 -9.6804 2.5123
vt -1.9167 -9.8454 3.4999
vt -1.3466 -9.8454 3.4999
vt -1.3466 -9.6804 3.4999
vt -1.9167 -9.6804 3.4999
vt -3.0974 3.0061 2.0615
vt -3.0974 3.4999 2.3466
vt -3.2624 3.4999 2.3466
vt -3.2624 3.0061 2.0615
vt 4.0974 4.5910 2.6316
vt 4.2624 2.6293 0.9037
vt 4.2624 4.5910 2.6316
vt -1.3466 -3.0974 3.4999
vt -1.9167 -3.0974 3.4999
vt -1.9167 -3.2624 3.4999
vt -1.3466 -3.2624 3.4999
vt 10.8454 3.0061 3.2018
vt 10.8454 3.4999 2.9167
vt 10.6804 3.4999 2.9167
vt 10.6804 3.0061 3.2018
vt -9.8454 4.5910 2.6316
vt -9.6804 2.6293 4.3596
vt -9.6804 4.5910 2.6316
vt 10.8454 2.5123 2.9167
vt 10.6804 2.5123 2.9167
vt 4.0974 3.4999 2.9167
vt 4.2624 3.4999 2.9167
vt -3.0974 4.5910 2.6316
vt -3.2624 4.5910 2.6316
vt -3.2624 2.6293 4.3596
vt -3.0974 2.5123 2.3466
vt -3.2624 2.5123 2.3466
vt 10.8454 4.5910 2.6316
vt 10.6804 4.5910 2.6316
vt 10.6804 2.6293 0.9037
vt -9.8454 3.4999 2.3466
vt -9.8454 3.0061 2.0615
vt -9.6804 3.0061 2.0615
vt -9.6804 3.4999 2.3466
vt -9.8454 2.5123 2.3466
vt -9.6804 2.5123 2.3466
vt 2.9167 -3.0974 2.5123
vt 2.3466 -3.0974 2.5123
vt 2.3466 -3.2624 2.5123
vt 2.9167 -3.2624 2.5123
# 200 texture coords

g muren
usemtl Material__2
s 8
f 1/1/1 2/2/2 3/3/3 4/4/4 
s 16
f 5/5/5 6/6/6 7/7/7 8/8/8 
s 64
f 9/9/9 10/10/10 11/11/11 12/12/12 
f 10/10/10 13/13/13 1/14/14 11/11/11 
f 14/15/15 2/16/16 1/14/14 13/13/13 
f 9/9/9 12/12/12 2/16/16 14/15/15 
s 16
f 15/17/17 16/18/18 17/19/19 18/20/20 
f 8/8/8 18/20/20 17/19/19 5/5/5 
f 6/6/6 16/18/18 15/17/17 7/7/7 
s 8
f 19/21/21 20/22/22 5/23/23 17/24/24 
s 32
f 21/25/25 16/26/26 6/27/27 22/28/28 
s 8
f 23/29/29 4/4/4 19/21/21 24/30/30 
f 25/31/31 26/32/32 27/33/33 
s 32
f 28/34/34 29/35/35 11/36/36 30/37/37 
f 31/38/38 28/34/34 30/37/37 
s 8
f 26/32/32 32/39/39 17/24/24 27/33/33 
f 32/39/39 24/30/30 19/21/21 17/24/24 
s 32
f 21/25/25 31/38/38 30/37/37 16/26/26 
f 29/35/35 33/40/40 12/41/41 11/36/36 
s 8
f 25/31/31 27/33/33 1/1/1 34/42/42 
f 23/29/29 1/1/1 4/4/4 
f 23/29/29 34/42/42 1/1/1 
s 32
f 33/40/40 22/28/28 6/27/27 12/41/41 
s 8
f 35/43/38 36/44/38 37/45/38 38/46/38 
s 16
f 39/47/43 40/48/43 41/49/43 42/50/43 
s 64
f 43/51/44 44/52/44 45/53/44 46/54/44 
f 37/55/44 47/56/44 44/52/44 43/51/44 
f 37/55/44 36/57/44 48/58/44 47/56/44 
f 36/57/44 46/54/44 45/53/44 48/58/44 
s 16
f 49/59/43 50/60/43 51/61/43 52/62/43 
f 49/59/43 52/62/43 42/50/43 41/49/43 
f 51/61/43 50/60/43 40/48/43 39/47/43 
s 8
f 41/63/38 53/64/38 54/65/38 49/66/38 
s 32
f 40/67/30 50/68/30 55/69/30 56/70/30 
s 8
f 54/65/38 38/46/38 57/71/38 58/72/38 
f 59/73/38 60/74/38 61/75/38 
s 32
f 43/76/30 62/77/30 63/78/30 64/79/30 
f 64/79/30 63/78/30 65/80/30 
s 8
f 49/66/38 66/81/38 60/74/38 59/73/38 
f 54/65/38 58/72/38 66/81/38 49/66/38 
s 32
f 64/79/30 65/80/30 55/69/30 50/68/30 
f 46/82/30 67/83/30 62/77/30 43/76/30 
s 8
f 37/45/38 59/73/38 61/75/38 68/84/38 
f 38/46/38 37/45/38 57/71/38 
f 37/45/38 68/84/38 57/71/38 
s 32
f 40/67/30 56/70/30 67/83/30 46/82/30 
s 1
f 3/85/45 2/86/45 36/87/45 35/88/45 
s 2
f 4/89/44 3/90/44 35/91/44 38/92/44 
s 1
f 6/93/45 5/94/45 41/95/45 40/96/45 
f 8/97/46 7/98/46 39/99/46 42/100/46 
f 10/101/30 9/102/30 45/103/30 44/104/30 
s 2
f 13/105/45 10/106/45 44/107/45 47/108/45 
s 1
f 11/109/46 1/110/46 37/111/46 43/112/46 
f 14/113/38 13/114/38 47/115/38 48/116/38 
f 2/86/45 12/117/45 46/118/45 36/87/45 
s 2
f 9/119/46 14/120/46 48/121/46 45/122/46 
s 1
f 17/123/46 16/124/46 50/125/46 49/126/46 
f 15/127/45 18/128/45 52/129/45 51/130/45 
s 2
f 18/131/38 8/132/38 42/133/38 52/134/38 
f 7/135/30 15/136/30 51/137/30 39/138/30 
f 20/139/43 19/140/43 54/141/43 53/142/43 
s 1
f 5/94/45 20/143/45 53/144/45 41/95/45 
f 21/145/47 22/146/47 56/147/47 55/148/47 
f 19/149/45 4/150/45 38/151/45 54/152/45 
f 23/153/46 24/154/46 58/155/46 57/156/46 
f 26/157/45 25/158/45 61/159/45 60/160/45 
f 29/161/48 28/162/48 63/163/48 62/164/48 
s 2
f 30/165/49 11/11/50 43/166/51 64/167/52 
f 28/168/45 31/169/45 65/170/45 63/171/45 
f 32/172/53 26/173/53 60/174/53 66/175/53 
f 27/176/54 17/19/55 49/177/56 59/178/57 
s 4
f 24/179/47 32/172/47 66/175/47 58/180/47 
f 31/181/53 21/145/53 55/148/53 65/182/53 
f 16/18/58 30/183/59 64/184/60 50/185/61 
s 2
f 33/186/62 29/161/62 62/164/62 67/187/62 
s 4
f 1/14/63 27/188/64 59/189/65 37/190/66 
s 2
f 25/191/48 34/192/48 68/193/48 61/194/48 
s 4
f 34/192/62 23/195/62 57/196/62 68/193/62 
f 22/197/46 33/198/46 67/199/46 56/200/46 
s 1
f 12/117/45 6/93/45 40/96/45 46/118/45 
# 72 polygons - 8 triangles

#
# object trappen_zijlkant
#

v  2.4541 -0.0001 -1.7583
v  2.4541 -0.0001 4.4338
v  2.4541 3.8254 4.4338
v  2.4541 -0.0001 5.2973
v  3.5121 -0.0001 5.2973
v  3.5121 3.8254 5.2973
v  2.4541 3.8254 5.2973
# 7 vertices

vn -1.0000 0.0000 0.0000
vn 0.0000 0.0000 1.0000
# 2 vertex normals

vt -1.6628 -1.0235 -7.9822
vt 1.4333 -1.0235 -7.9822
vt 1.4333 0.8893 -7.9822
vt 8.9822 -1.0235 -0.8650
vt 9.5112 -1.0235 -0.8650
vt 9.5112 0.8893 -0.8650
vt 8.9822 0.8893 -0.8650
vt 1.8650 -1.0235 -7.9822
vt 1.8650 0.8893 -7.9822
# 9 texture coords

g trappen_zijlkant
usemtl Material__4
s 32
f 69/201/67 70/202/67 71/203/67 
s 64
f 72/204/68 73/205/68 74/206/68 75/207/68 
s off
f 71/203/67 70/202/67 72/208/67 75/209/67 
# 2 polygons - 1 triangles

#
# object dak
#

v  0.0720 9.2389 -7.0446
v  -3.7213 5.1171 -7.0446
v  -3.7213 5.1171 6.9035
v  0.0720 9.2389 6.9035
v  3.8653 5.1171 -7.0446
v  3.8653 5.1171 6.9035
v  -3.4511 4.8791 6.9035
v  -3.4511 4.8791 -7.0446
v  0.0720 8.8789 -7.0446
v  0.0720 8.8789 6.9035
v  3.5952 4.8791 -7.0446
v  3.5952 4.8791 6.9035
# 12 vertices

vn -0.0000 1.0000 0.0000
vn -0.7358 0.6772 -0.0000
vn 0.0000 1.0000 -0.0000
vn 0.7358 0.6772 0.0000
vn 0.7358 0.6772 -0.0000
vn 0.7504 -0.6610 -0.0000
vn 0.0000 -1.0000 -0.0000
vn -0.7504 -0.6610 -0.0000
vn 0.0000 0.0000 -1.0000
vn -0.6610 -0.7504 -0.0000
vn 0.0000 0.0000 1.0000
vn 0.6610 -0.7504 -0.0000
# 12 vertex normals

vt 3.8418 6.1235 2.6331
vt 3.8418 4.0626 0.7364
vt 10.3848 4.0626 0.7364
vt 10.3848 6.1235 2.6331
vt -2.8418 4.0626 4.5297
vt -2.8418 6.1235 2.6331
vt -9.3848 6.1235 2.6331
vt -9.3848 4.0626 4.5297
vt -9.3848 3.9436 0.8715
vt -2.8418 3.9436 0.8715
vt -2.8418 5.9435 2.6331
vt -9.3848 5.9435 2.6331
vt 10.3848 5.9435 2.6331
vt 3.8418 5.9435 2.6331
vt 3.8418 3.9436 4.3946
vt 10.3848 3.9436 4.3946
vt 0.2636 4.0626 -2.8418
vt -1.6331 6.1235 -2.8418
vt -1.6331 5.9435 -2.8418
vt 0.1285 3.9436 -2.8418
vt 0.2636 -9.3848 4.0626
vt 0.2636 -2.8418 4.0626
vt 0.1285 -2.8418 3.9436
vt 0.1285 -9.3848 3.9436
vt 2.6331 6.1235 -9.3848
vt 0.7364 4.0626 -9.3848
vt 0.8715 3.9436 -9.3848
vt 2.6331 5.9435 -9.3848
vt -3.5297 4.0626 -2.8418
vt -3.3946 3.9436 -2.8418
vt 4.5297 4.0626 -9.3848
vt 4.3946 3.9436 -9.3848
vt -3.5297 -2.8418 4.0626
vt -3.5297 -9.3848 4.0626
vt -3.3946 -9.3848 3.9436
vt -3.3946 -2.8418 3.9436
# 36 texture coords

g dak
usemtl Material__7
s 4
f 76/210/69 77/211/70 78/212/70 79/213/71 
f 80/214/72 76/215/69 79/216/71 81/217/73 
f 82/218/74 83/219/74 84/220/75 85/221/75 
f 85/222/75 84/223/75 86/224/76 87/225/76 
s 1
f 77/226/77 76/227/77 84/228/77 83/229/77 
s 2
f 78/230/78 77/231/78 83/232/78 82/233/78 
s 1
f 79/234/79 78/235/79 82/236/79 85/237/79 
f 76/227/77 80/238/77 86/239/77 84/228/77 
f 81/240/79 79/234/79 85/237/79 87/241/79 
s 2
f 80/242/80 81/243/80 87/244/80 86/245/80 
# 10 polygons

#
# object vloeronder
#

v  -3.5232 -0.1256 6.5430
v  -3.5232 -0.1256 -6.5430
v  3.5232 -0.1256 -6.5430
v  3.5232 -0.1256 6.5430
v  3.5232 0.2044 -6.5430
v  -3.5232 0.2044 -6.5430
v  -3.5232 0.2044 6.5430
v  3.5232 0.2044 6.5430
# 8 vertices

vn 0.0000 -1.0000 -0.0000
vn 0.0000 1.0000 -0.0000
vn -1.0000 0.0000 -0.0000
vn 0.0000 0.0000 -1.0000
vn 1.0000 0.0000 -0.0000
vn 0.0000 0.0000 1.0000
# 6 vertex normals

vt 2.0528 -3.8477 0.4175
vt 2.0528 2.6953 0.4175
vt -1.4704 2.6953 0.4175
vt -1.4704 -3.8477 0.4175
vt 2.4704 2.6953 0.5825
vt -1.0528 2.6953 0.5825
vt -1.0528 -3.8477 0.5825
vt 2.4704 -3.8477 0.5825
vt -1.6953 0.4175 -1.0528
vt 4.8477 0.4175 -1.0528
vt 4.8477 0.5825 -1.0528
vt -1.6953 0.5825 -1.0528
vt -1.4704 0.4175 2.6953
vt 2.0528 0.4175 2.6953
vt 2.0528 0.5825 2.6953
vt -1.4704 0.5825 2.6953
vt -3.8477 0.4175 2.4704
vt 2.6953 0.4175 2.4704
vt 2.6953 0.5825 2.4704
vt -3.8477 0.5825 2.4704
vt -1.0528 0.4175 -3.8477
vt 2.4704 0.4175 -3.8477
vt 2.4704 0.5825 -3.8477
vt -1.0528 0.5825 -3.8477
# 24 texture coords

g vloeronder
usemtl Material__6
s 2
f 88/246/81 89/247/81 90/248/81 91/249/81 
f 92/250/82 93/251/82 94/252/82 95/253/82 
s 1
f 89/254/83 88/255/83 94/256/83 93/257/83 
s 4
f 90/258/84 89/259/84 93/260/84 92/261/84 
s 1
f 91/262/85 90/263/85 92/264/85 95/265/85 
s 4
f 88/266/86 91/267/86 95/268/86 94/269/86 
# 6 polygons

#
# object vloerboven
#

v  3.5689 3.7981 -6.3793
v  3.5689 3.7981 1.2401
v  2.5310 3.7981 1.2401
v  -3.4774 3.7981 -6.3793
v  -3.4774 3.7981 6.5721
v  2.5310 3.7981 4.6231
v  3.5689 3.7981 4.6231
v  3.5689 3.7981 6.5721
v  2.5310 3.9642 1.2401
v  3.5689 3.9642 1.2401
v  3.5689 3.9642 -6.3793
v  -3.4774 3.9642 -6.3793
v  3.5689 3.9642 6.5721
v  3.5689 3.9642 4.6231
v  2.5310 3.9642 4.6231
v  -3.4774 3.9642 6.5721
# 16 vertices

vn 0.0000 -1.0000 -0.0000
vn 0.0000 1.0000 -0.0000
vn -0.0000 0.0000 1.0000
vn 1.0000 0.0000 -0.0000
vn -0.0000 0.0000 -1.0000
# 5 vertex normals

vt -4.0968 -3.8022 -2.0055
vt -4.0968 -7.6119 -2.0055
vt -3.5779 -7.6119 -2.0055
vt -0.5736 -3.8022 -2.0055
vt -0.5736 -10.2778 -2.0055
vt -3.5779 -9.3033 -2.0055
vt -4.0968 -9.3033 -2.0055
vt -4.0968 -10.2778 -2.0055
vt 4.5779 -7.6119 -1.9225
vt 5.0968 -7.6119 -1.9225
vt 5.0968 -3.8022 -1.9225
vt 1.5736 -3.8022 -1.9225
vt 5.0968 -10.2778 -1.9225
vt 5.0968 -9.3033 -1.9225
vt 4.5779 -9.3033 -1.9225
vt 1.5736 -10.2778 -1.9225
vt 5.0968 -1.9225 -7.6119
vt 4.5779 -1.9225 -7.6119
vt 4.5779 -2.0055 -7.6119
vt 5.0968 -2.0055 -7.6119
vt -7.6119 -1.9225 4.5779
vt -9.3033 -1.9225 4.5779
vt -9.3033 -2.0055 4.5779
vt -7.6119 -2.0055 4.5779
vt -3.5779 -1.9225 -9.3033
vt -4.0968 -1.9225 -9.3033
vt -4.0968 -2.0055 -9.3033
vt -3.5779 -2.0055 -9.3033
# 28 texture coords

g vloerboven
usemtl Material__8
s 2
f 96/270/87 97/271/87 98/272/87 99/273/87 
f 100/274/87 101/275/87 102/276/87 103/277/87 
f 104/278/88 105/279/88 106/280/88 107/281/88 
f 108/282/88 109/283/88 110/284/88 111/285/88 
s 1
f 105/286/89 104/287/89 98/288/89 97/289/89 
s 4
f 104/290/90 110/291/90 101/292/90 98/293/90 
s 1
f 110/294/91 109/295/91 102/296/91 101/297/91 
s 2
f 104/278/88 107/281/88 111/285/88 110/284/88 
f 99/273/87 98/272/87 101/275/87 100/274/87 
# 9 polygons

#
# object trappen_vlak
#

v  3.5023 3.9291 4.5972
v  3.5023 0.1036 -1.5949
v  2.4442 0.1036 -1.5949
v  2.4442 3.9291 4.5972
# 4 vertices

vn -0.0000 0.8507 -0.5256
vn 0.0000 0.8507 -0.5256
# 2 vertex normals

vt -8.6773 -0.0490 0.9751
vt -8.6773 -3.1451 -0.9377
vt -8.1483 -3.1451 -0.9377
vt -8.1483 -0.0490 0.9751
# 4 texture coords

g trappen_vlak
usemtl Material__12
s 4
f 112/298/92 113/299/93 114/300/93 115/301/92 
# 1 polygons

