# 3ds Max Wavefront OBJ Exporter v0.97b - (c)2007 guruware
# File Created: 25.12.2012 16:14:17

mtllib lantern.mtl

#
# object Box001
#

v  -0.3330 0.0000 0.3067
v  0.1670 0.0000 0.3067
v  0.1670 1.0000 0.3067
v  -0.3330 1.0000 0.3067
v  0.1670 0.0000 -0.1933
v  0.1670 1.0000 -0.1933
v  -0.3330 0.0000 -0.1933
v  -0.3330 1.0000 -0.1933
# 8 vertices

vn 0.0000 0.0000 1.0000
vn 1.0000 0.0000 -0.0000
vn 0.0000 0.0000 -1.0000
vn -1.0000 0.0000 -0.0000
# 4 vertex normals

vt 0.3750 0.3750 0.3750
vt 0.6250 0.3750 0.3750
vt 0.6250 0.8750 0.3750
vt 0.3750 0.8750 0.3750
vt 0.3750 0.3750 0.6250
vt 0.6250 0.3750 0.6250
vt 0.6250 0.8750 0.6250
vt 0.3750 0.8750 0.6250
# 8 texture coords

g Box001
usemtl Material__30
s 8
f 1/1/1 2/2/1 3/3/1 4/4/1 
s 16
f 2/5/2 5/6/2 6/7/2 3/8/2 
s 32
f 5/5/3 7/6/3 8/7/3 6/8/3 
s 64
f 7/1/4 1/2/4 4/3/4 8/4/4 
# 4 polygons

#
# object Object001
#

v  -0.3330 1.0000 0.3067
v  0.1670 1.0000 0.3067
v  0.1670 1.0000 -0.1933
v  -0.3330 1.0000 -0.1933
# 4 vertices

vn 0.0000 1.0000 -0.0000
# 1 vertex normals

vt 0.3750 0.3750 0.8750
vt 0.6250 0.3750 0.8750
vt 0.6250 0.6250 0.8750
vt 0.3750 0.6250 0.8750
# 4 texture coords

g Object001
usemtl Material__33
s 4
f 9/9/5 10/10/5 11/11/5 12/12/5 
# 1 polygons

