# ###############################
# Obj file written by RoadKill1_1
# RoadKill by Andy Swann
# http://www.pullin-shapes.co.uk/
# ###############################
g RoadKillOut
o RoadKillOut
# 32 Vertex coords
v 0.163000 0.134100 0.232300
v 0.163000 0.000000 0.268300
v 0.163000 -0.134100 0.232300
v 0.163000 0.268300 0.000000
v 0.163000 -0.134100 -0.232300
v 0.163000 -0.268300 0.000000
v 0.163000 -0.232300 0.134100
v 0.163000 -0.232300 -0.134100
v 0.163000 0.134100 -0.232300
v 0.163000 0.000000 -0.268300
v 0.163000 0.232300 -0.134100
v 0.163000 0.232300 0.134100
v -0.163000 0.232300 -0.134100
v -0.163000 0.268300 0.000000
v -0.163000 0.134100 -0.232300
v -0.163000 0.000000 -0.268300
v -0.163000 -0.134100 -0.232300
v -0.163000 -0.232300 -0.134100
v -0.163000 -0.268300 0.000000
v -0.163000 -0.232300 0.134100
v -0.163000 -0.134100 0.232300
v -0.163000 0.000000 0.268300
v -0.163000 0.134100 0.232300
v -0.163000 0.232300 0.134100
v -0.100000 0.636400 -0.777800
v 0.100000 0.636400 -0.777800
v 0.100000 -0.070700 -0.070700
v -0.100000 -0.070700 -0.070700
v 0.100000 0.070700 0.070700
v 0.100000 0.777800 -0.636400
v -0.100000 0.777800 -0.636400
v -0.100000 0.070700 0.070700

# 20 Normal vectors
vn 1.000000 0.000000 0.000000
vn 0.000000 1.000000 0.000000
vn 0.000000 0.866000 -0.500000
vn 0.000000 0.500000 -0.866000
vn 0.000000 0.000000 -1.000000
vn 0.000000 -0.500000 -0.866000
vn 0.000000 -0.866000 -0.500000
vn 0.000000 -1.000000 0.000000
vn 0.000000 -0.866000 0.500000
vn 0.000000 -0.500000 0.866000
vn 0.000000 0.000000 1.000000
vn 0.000000 0.500000 0.866000
vn 0.000000 0.866000 0.500000
vn -1.000000 0.000000 0.000000
vn 0.000000 -0.707100 -0.707100
vn 0.000000 0.707100 0.707100
vn 0.000000 -0.707100 0.707100
vn 1.000000 0.000000 0.000000
vn 0.000000 0.707100 -0.707100
vn -1.000000 0.000000 0.000000

# 76 texture coords
vt 0.408532 0.203106 0.00
vt 0.361387 0.175916 0.00
vt 0.334197 0.128770 0.00
vt 0.510113 0.175916 0.00
vt 0.462967 0.000000 0.00
vt 0.361387 0.027190 0.00
vt 0.334197 0.074335 0.00
vt 0.408532 0.000000 0.00
vt 0.537303 0.074335 0.00
vt 0.510113 0.027190 0.00
vt 0.537303 0.128770 0.00
vt 0.462967 0.203106 0.00
vt 0.127782 0.380991 0.00
vt 0.127782 0.435415 0.00
vt 0.000000 0.435415 0.00
vt 0.000000 0.380991 0.00
vt 0.870936 0.657488 0.00
vt 0.870936 0.603053 0.00
vt 0.998718 0.603053 0.00
vt 0.998718 0.657488 0.00
vt 0.870936 0.548629 0.00
vt 0.998718 0.548629 0.00
vt 0.870936 0.494204 0.00
vt 0.998718 0.494204 0.00
vt 0.870936 0.439769 0.00
vt 0.998718 0.439769 0.00
vt 0.127782 0.000000 0.00
vt 0.127782 0.054424 0.00
vt 0.000000 0.054424 0.00
vt 0.000000 0.000000 0.00
vt 0.127782 0.108848 0.00
vt 0.000000 0.108849 0.00
vt 0.127782 0.163283 0.00
vt 0.000000 0.163283 0.00
vt 0.127782 0.217708 0.00
vt 0.000000 0.217708 0.00
vt 0.127782 0.272132 0.00
vt 0.000000 0.272132 0.00
vt 0.127782 0.326567 0.00
vt 0.000000 0.326567 0.00
vt 0.156250 0.175916 0.00
vt 0.129060 0.128770 0.00
vt 0.129060 0.074335 0.00
vt 0.257830 0.203106 0.00
vt 0.304976 0.027190 0.00
vt 0.203395 0.000000 0.00
vt 0.156250 0.027190 0.00
vt 0.257830 0.000000 0.00
vt 0.332166 0.128770 0.00
vt 0.332166 0.074335 0.00
vt 0.304976 0.175916 0.00
vt 0.203395 0.203106 0.00
vt 0.391965 0.439769 0.00
vt 0.391965 0.518163 0.00
vt 0.000000 0.518163 0.00
vt 0.000000 0.439769 0.00
vt 0.617728 0.000000 0.00
vt 0.617728 0.391965 0.00
vt 0.539334 0.391965 0.00
vt 0.539334 0.000000 0.00
vt 0.157560 0.914048 0.00
vt 0.079178 0.914048 0.00
vt 0.079178 0.835654 0.00
vt 0.157560 0.835654 0.00
vt 0.474267 0.831735 0.00
vt 0.395885 0.831735 0.00
vt 0.395885 0.439769 0.00
vt 0.474267 0.439769 0.00
vt 0.000000 0.914036 0.00
vt 0.000000 0.835654 0.00
vt 0.078394 0.835654 0.00
vt 0.078394 0.914036 0.00
vt 0.475051 0.518151 0.00
vt 0.475051 0.439769 0.00
vt 0.867016 0.439769 0.00
vt 0.867016 0.518151 0.00

# 32 Faces
f  1/1/1  2/2/1  3/3/1  4/4/1 
f  5/5/1  4/4/1  3/3/1  6/6/1 
f  3/3/1  7/7/1  6/6/1 
f  6/6/1  8/8/1  5/5/1 
f  9/9/1  4/4/1  5/5/1  10/10/1 
f  9/9/1  11/11/1  4/4/1 
f  12/12/1  1/1/1  4/4/1 
f  4/13/2  11/14/3  13/15/3  14/16/2 
f  11/17/3  9/18/4  15/19/4  13/20/3 
f  9/18/4  10/21/5  16/22/5  15/19/4 
f  10/21/5  5/23/6  17/24/6  16/22/5 
f  5/23/6  8/25/7  18/26/7  17/24/6 
f  8/27/7  6/28/8  19/29/8  18/30/7 
f  6/28/8  7/31/9  20/32/9  19/29/8 
f  7/31/9  3/33/10  21/34/10  20/32/9 
f  3/33/10  2/35/11  22/36/11  21/34/10 
f  2/35/11  1/37/12  23/38/12  22/36/11 
f  1/37/12  12/39/13  24/40/13  23/38/12 
f  12/39/13  4/13/2  14/16/2  24/40/13 
f  14/41/14  13/42/14  15/43/14  23/44/14 
f  19/45/14  23/44/14  15/43/14  17/46/14 
f  15/43/14  16/47/14  17/46/14 
f  17/46/14  18/48/14  19/45/14 
f  21/49/14  23/44/14  19/45/14  20/50/14 
f  21/49/14  22/51/14  23/44/14 
f  24/52/14  14/41/14  23/44/14 
f  25/53/15  26/54/15  27/55/15  28/56/15 
f  29/57/16  30/58/16  31/59/16  32/60/16 
f  27/61/17  29/62/17  32/63/17  28/64/17 
f  26/65/18  30/66/18  29/67/18  27/68/18 
f  25/69/19  31/70/19  30/71/19  26/72/19 
f  28/73/20  32/74/20  31/75/20  25/76/20 
