# ###############################
# Obj file written by RoadKill1_1
# RoadKill by Andy Swann
# http://www.pullin-shapes.co.uk/
# ###############################
g RoadKillOut
o RoadKillOut
# 14 Vertex coords
v 0.864800 9.915700 2.333800
v 0.864800 10.652400 0.000000
v -0.864800 10.652400 0.000000
v -0.864800 9.915700 2.333800
v 0.864800 0.000000 4.667700
v 0.864800 6.097000 4.667700
v -0.864800 6.097000 4.667700
v -0.864800 0.000000 4.667700
v -0.864800 0.000000 -4.667700
v -0.864800 6.097000 -4.667700
v 0.864800 6.097000 -4.667700
v 0.864800 0.000000 -4.667700
v 0.864800 9.915700 -2.333800
v -0.864800 9.915700 -2.333800

# 14 Normal vectors
vn 0.636000 0.607700 0.475500
vn 0.645200 0.764000 0.000000
vn -0.645200 0.764000 0.000000
vn -0.636000 0.607700 0.475500
vn 0.707100 0.000000 0.707100
vn 0.650900 0.205600 0.730800
vn -0.650900 0.205600 0.730800
vn -0.707100 0.000000 0.707100
vn -0.707100 0.000000 -0.707100
vn -0.650900 0.205600 -0.730800
vn 0.650900 0.205600 -0.730800
vn 0.707100 0.000000 -0.707100
vn 0.636000 0.607700 -0.475500
vn -0.636000 0.607700 -0.475500

# 28 texture coords
vt 0.767570 0.588086 0.00
vt 0.767569 0.495035 0.00
vt 0.833332 0.495035 0.00
vt 0.833332 0.588086 0.00
vt 0.767569 0.990066 0.00
vt 0.767570 0.758249 0.00
vt 0.833332 0.758249 0.00
vt 0.833331 0.990066 0.00
vt 0.833332 0.000000 0.00
vt 0.833332 0.231819 0.00
vt 0.767569 0.231819 0.00
vt 0.767569 0.000000 0.00
vt 0.767569 0.401983 0.00
vt 0.833332 0.401983 0.00
vt 0.764020 0.231818 0.00
vt 0.675281 0.377012 0.00
vt 0.586546 0.405022 0.00
vt 0.409072 0.231818 0.00
vt 0.497811 0.377012 0.00
vt 0.409072 0.000000 0.00
vt 0.764020 0.000000 0.00
vt 0.231818 0.000000 0.00
vt 0.377012 0.088739 0.00
vt 0.405022 0.177474 0.00
vt 0.231818 0.354948 0.00
vt 0.377012 0.266209 0.00
vt 0.000000 0.354948 0.00
vt 0.000000 0.000000 0.00

# 12 Faces
f  1/1/1  2/2/2  3/3/3  4/4/4 
f  5/5/5  6/6/6  7/7/7  8/8/8 
f  9/9/9  10/10/10  11/11/11  12/12/12 
f  13/13/13  11/11/11  10/10/10  14/14/14 
f  2/2/2  13/13/13  14/14/14  3/3/3 
f  4/4/4  7/7/7  6/6/6  1/1/1 
f  11/15/11  13/16/13  2/17/2  6/18/6 
f  2/17/2  1/19/1  6/18/6 
f  11/15/11  6/18/6  5/20/5  12/21/12 
f  7/22/7  4/23/4  3/24/3  10/25/10 
f  3/24/3  14/26/14  10/25/10 
f  7/22/7  10/25/10  9/27/9  8/28/8 
