# 3ds Max Wavefront OBJ Exporter v0.97b - (c)2007 guruware
# File Created: 22.10.2012 14:33:37

mtllib sign_direction.mtl

#
# object Box002
#

v  -0.8028 1.5355 0.0685
v  -0.8028 1.5355 -0.0685
v  1.2282 1.5355 -0.0685
v  1.2282 1.5355 0.0685
v  -0.8028 2.2623 0.0685
v  1.2282 2.2623 0.0685
v  1.2282 2.2623 -0.0685
v  -0.8028 2.2623 -0.0685
v  1.0680 1.8989 0.0685
v  -1.4502 1.8989 0.0685
v  1.0680 1.8989 -0.0685
v  -1.4502 1.8989 -0.0685
v  -0.1211 0.0000 0.0633
v  0.1211 0.0000 0.0633
v  0.1211 1.5411 0.0633
v  -0.1211 1.5411 0.0633
v  0.1211 0.0000 -0.0633
v  0.1211 1.5411 -0.0633
v  -0.1211 0.0000 -0.0633
v  -0.1211 1.5411 -0.0633
# 20 vertices

vn 0.0000 -1.0000 -0.0000
vn 0.0000 1.0000 -0.0000
vn 0.0000 0.0000 1.0000
vn 1.0000 0.0000 -0.0000
vn 0.0000 0.0000 -1.0000
vn -1.0000 0.0000 -0.0000
vn 0.9151 -0.4033 -0.0000
vn -0.4895 0.8720 -0.0000
# 8 vertex normals

vt 0.1048 0.4344 1.3836
vt 0.1048 0.5029 1.3836
vt -0.9107 0.5029 1.3836
vt -0.9107 0.4344 1.3836
vt 0.8952 0.4344 1.7470
vt 1.9107 0.4344 1.7470
vt 1.9107 0.5029 1.7470
vt 0.8952 0.5029 1.7470
vt 1.8306 1.5653 0.4344
vt 0.5715 1.5653 0.4344
vt 0.8952 1.3836 0.4344
vt 1.9107 1.3836 0.4344
vt 0.4344 1.5653 1.8306
vt 0.4344 1.3836 1.9107
vt 0.5029 1.3836 1.9107
vt 0.5029 1.5653 1.8306
vt -0.8306 1.5653 0.5029
vt -0.9107 1.3836 0.5029
vt 0.1048 1.3836 0.5029
vt 0.4285 1.5653 0.5029
vt 0.4285 0.5029 1.5653
vt 0.4285 0.4344 1.5653
vt 1.2360 0.6131 0.4301
vt 1.3571 0.6131 0.4301
vt 1.3571 1.3836 0.4301
vt 1.2360 1.3836 0.4301
vt 0.4301 0.6131 1.3571
vt 0.5072 0.6131 1.3571
vt 0.5072 1.3836 1.3571
vt 0.4301 1.3836 1.3571
vt -0.3571 0.6131 0.5072
vt -0.2360 0.6131 0.5072
vt -0.2360 1.3836 0.5072
vt -0.3571 1.3836 0.5072
vt 0.4928 0.6131 1.2360
vt 0.5699 0.6131 1.2360
vt 0.5699 1.3836 1.2360
vt 0.4928 1.3836 1.2360
vt 0.8952 1.7470 0.4344
vt 1.9107 1.7470 0.4344
vt 0.4344 1.7470 1.9107
vt 0.5029 1.7470 1.9107
vt 0.1048 1.7470 0.5029
vt -0.9107 1.7470 0.5029
vt 0.5715 0.5029 1.5653
vt 0.5715 0.4344 1.5653
# 46 texture coords

g Box002
usemtl Material__25
s 2
f 1/1/1 2/2/1 3/3/1 4/4/1 
s 4
f 5/5/2 6/6/2 7/7/2 8/8/2 
s 8
f 9/9/3 10/10/3 1/11/3 4/12/3 
s 16
f 9/13/4 4/14/4 3/15/4 11/16/4 
s 32
f 11/17/5 3/18/5 2/19/5 12/20/5 
s 64
f 12/21/6 2/2/6 1/1/6 10/22/6 
s 8
f 13/23/3 14/24/3 15/25/3 16/26/3 
s 16
f 14/27/4 17/28/4 18/29/4 15/30/4 
s 32
f 17/31/5 19/32/5 20/33/5 18/34/5 
s 64
f 19/35/6 13/36/6 16/37/6 20/38/6 
s 8
f 5/39/3 10/10/3 9/9/3 6/40/3 
s 16
f 6/41/7 9/13/4 11/16/4 7/42/7 
s 32
f 8/43/5 7/44/5 11/17/5 12/20/5 
s 64
f 8/8/8 12/45/6 10/46/6 5/5/8 
# 14 polygons

