# 3ds Max Wavefront OBJ Exporter v0.97b - (c)2007 guruware
# File Created: 26.12.2012 14:38:10

mtllib table.mtl

#
# object Box001
#

v  1.4182 0.8072 1.0523
v  -1.4182 0.8072 1.0523
v  -1.4182 0.8072 -1.0523
v  1.4182 0.8072 -1.0523
v  -1.4182 0.9072 -1.0523
v  -1.4182 0.9072 1.0523
v  1.4182 0.9072 1.0523
v  1.4182 0.9072 -1.0523
v  -1.4090 -0.0000 1.0315
v  -1.4090 -0.0000 0.9032
v  -1.2808 -0.0000 0.9032
v  -1.2808 -0.0000 1.0315
v  -1.2808 0.8849 1.0315
v  -1.4090 0.8849 1.0315
v  -1.2808 0.8849 0.9032
v  -1.4090 0.8849 0.9032
v  -1.4020 0.0000 -0.8978
v  -1.4020 0.0000 -1.0261
v  -1.2738 0.0000 -1.0261
v  -1.2738 0.0000 -0.8978
v  -1.2738 0.8849 -0.8978
v  -1.4020 0.8849 -0.8978
v  -1.2738 0.8849 -1.0261
v  -1.4020 0.8849 -1.0261
v  1.2748 0.0000 1.0315
v  1.2748 -0.0000 0.9032
v  1.4031 -0.0000 0.9032
v  1.4031 0.0000 1.0315
v  1.4031 0.8849 1.0315
v  1.2748 0.8849 1.0315
v  1.4031 0.8849 0.9032
v  1.2748 0.8849 0.9032
v  1.2818 0.0000 -0.8978
v  1.2818 -0.0000 -1.0261
v  1.4100 -0.0000 -1.0261
v  1.4100 0.0000 -0.8978
v  1.4100 0.8849 -0.8978
v  1.2818 0.8849 -0.8978
v  1.4100 0.8849 -1.0261
v  1.2818 0.8849 -1.0261
# 40 vertices

vn 0.0000 -1.0000 -0.0000
vn -0.0000 1.0000 0.0000
vn -0.0000 0.0000 -1.0000
vn 1.0000 0.0000 -0.0000
vn -0.0000 0.0000 1.0000
vn -1.0000 0.0000 -0.0000
vn 0.0000 0.0000 1.0000
vn 0.0000 -0.0000 -1.0000
vn 0.0000 0.0000 -1.0000
vn -0.0000 -0.0000 1.0000
vn 0.0000 -0.0000 1.0000
vn 1.0000 0.0000 0.0000
vn -1.0000 -0.0000 -0.0000
vn 0.0000 -1.0000 0.0000
# 14 vertex normals

vt -0.0529 0.0897 0.6768
vt 1.0529 0.0897 0.6768
vt 1.0529 0.9103 0.6768
vt -0.0529 0.9103 0.6768
vt -0.0529 0.9103 0.7268
vt -0.0529 0.0897 0.7268
vt 1.0529 0.0897 0.7268
vt 1.0529 0.9103 0.7268
vt 1.0529 0.7268 0.9103
vt -0.0529 0.7268 0.9103
vt -0.0529 0.6768 0.9103
vt 1.0529 0.6768 0.9103
vt 0.9103 0.7268 1.0529
vt 0.0897 0.7268 1.0529
vt 0.0897 0.6768 1.0529
vt 0.9103 0.6768 1.0529
vt 1.0529 0.7268 0.0897
vt -0.0529 0.7268 0.0897
vt -0.0529 0.6768 0.0897
vt 1.0529 0.6768 0.0897
vt 0.9103 0.7268 -0.0529
vt 0.0897 0.7268 -0.0529
vt 0.0897 0.6768 -0.0529
vt 0.9103 0.6768 -0.0529
vt 1.0494 0.0978 0.2732
vt 1.0494 0.1478 0.2732
vt 0.9994 0.1478 0.2732
vt 0.9994 0.0978 0.2732
vt -0.0494 0.2732 0.0978
vt 0.0006 0.2732 0.0978
vt 0.0006 0.7156 0.0978
vt -0.0494 0.7156 0.0978
vt 0.0978 0.2732 0.0006
vt 0.1478 0.2732 0.0006
vt 0.1478 0.7156 0.0006
vt 0.0978 0.7156 0.0006
vt 0.9994 0.2732 0.1478
vt 1.0494 0.2732 0.1478
vt 1.0494 0.7156 0.1478
vt 0.9994 0.7156 0.1478
vt 0.8522 0.2732 -0.0494
vt 0.9022 0.2732 -0.0494
vt 0.9022 0.7156 -0.0494
vt 0.8522 0.7156 -0.0494
vt 1.0466 0.8501 0.2732
vt 1.0466 0.9001 0.2732
vt 0.9966 0.9001 0.2732
vt 0.9966 0.8501 0.2732
vt -0.0466 0.2732 0.8501
vt 0.0034 0.2732 0.8501
vt 0.0034 0.7156 0.8501
vt -0.0466 0.7156 0.8501
vt 0.8501 0.2732 0.0034
vt 0.9001 0.2732 0.0034
vt 0.9001 0.7156 0.0034
vt 0.8501 0.7156 0.0034
vt 0.9966 0.2732 0.9001
vt 1.0466 0.2732 0.9001
vt 1.0466 0.7156 0.9001
vt 0.9966 0.7156 0.9001
vt 0.0999 0.2732 -0.0466
vt 0.1499 0.2732 -0.0466
vt 0.1499 0.7156 -0.0466
vt 0.0999 0.7156 -0.0466
vt 0.0029 0.0978 0.2732
vt 0.0029 0.1478 0.2732
vt -0.0471 0.1478 0.2732
vt -0.0471 0.0978 0.2732
vt 0.9971 0.2732 0.0978
vt 1.0471 0.2732 0.0978
vt 1.0471 0.7156 0.0978
vt 0.9971 0.7156 0.0978
vt 0.0978 0.2732 1.0471
vt 0.1478 0.2732 1.0471
vt 0.1478 0.7156 1.0471
vt 0.0978 0.7156 1.0471
vt -0.0471 0.2732 0.1478
vt 0.0029 0.2732 0.1478
vt 0.0029 0.7156 0.1478
vt -0.0471 0.7156 0.1478
vt 0.8522 0.2732 0.9971
vt 0.9022 0.2732 0.9971
vt 0.9022 0.7156 0.9971
vt 0.8522 0.7156 0.9971
vt 0.0002 0.8501 0.2732
vt 0.0002 0.9001 0.2732
vt -0.0498 0.9001 0.2732
vt -0.0498 0.8501 0.2732
vt 0.9998 0.2732 0.8501
vt 1.0498 0.2732 0.8501
vt 1.0498 0.7156 0.8501
vt 0.9998 0.7156 0.8501
vt 0.8501 0.2732 1.0498
vt 0.9001 0.2732 1.0498
vt 0.9001 0.7156 1.0498
vt 0.8501 0.7156 1.0498
vt -0.0498 0.2732 0.9001
vt 0.0002 0.2732 0.9001
vt 0.0002 0.7156 0.9001
vt -0.0498 0.7156 0.9001
vt 0.0999 0.2732 0.9998
vt 0.1499 0.2732 0.9998
vt 0.1499 0.7156 0.9998
vt 0.0999 0.7156 0.9998
# 104 texture coords

g Box001
usemtl Material__26
s off
f 1/1/1 2/2/1 3/3/1 4/4/1 
f 5/5/2 6/6/2 7/7/2 8/8/2 
s 1
f 5/9/3 8/10/3 4/11/3 3/12/3 
s 2
f 8/13/4 7/14/4 1/15/4 4/16/4 
s 1
f 7/17/5 6/18/5 2/19/5 1/20/5 
s 2
f 6/21/6 5/22/6 3/23/6 2/24/6 
usemtl Material__27
f 9/25/1 10/26/1 11/27/1 12/28/1 
s 8
f 9/29/7 12/30/7 13/31/7 14/32/7 
s 16
f 12/33/4 11/34/4 15/35/4 13/36/4 
s 32
f 11/37/8 10/38/8 16/39/8 15/40/9 
s 64
f 10/41/6 9/42/6 14/43/6 16/44/6 
s 2
f 17/45/1 18/46/1 19/47/1 20/48/1 
s 8
f 17/49/10 20/50/11 21/51/10 22/52/10 
s 16
f 20/53/12 19/54/4 23/55/12 21/56/12 
s 32
f 19/57/8 18/58/8 24/59/8 23/60/9 
s 64
f 18/61/13 17/62/13 22/63/13 24/64/13 
s 2
f 25/65/14 26/66/14 27/67/14 28/68/14 
s 8
f 25/69/10 28/70/11 29/71/10 30/72/5 
s 16
f 28/73/4 27/74/4 31/75/4 29/76/4 
s 32
f 27/77/9 26/78/9 32/79/9 31/80/9 
s 64
f 26/81/6 25/82/6 30/83/6 32/84/6 
s 2
f 33/85/14 34/86/14 35/87/14 36/88/14 
s 8
f 33/89/11 36/90/11 37/91/11 38/92/11 
s 16
f 36/93/4 35/94/4 39/95/4 37/96/4 
s 32
f 35/97/9 34/98/9 40/99/9 39/100/9 
s 64
f 34/101/6 33/102/6 38/103/6 40/104/6 
# 26 polygons

